<svg width="28" height="20" viewBox="0 0 28 20" fill="none" xmlns="http://www.w3.org/2000/svg">
<path d="M2.83838 19.2505C1.46875 19.2505 0.355469 18.1675 0.355469 16.8351V3.33334C0.355469 2.00181 1.46875 0.918091 2.83838 0.918091H24.6519C26.0208 0.918091 27.1348 2.00181 27.1348 3.33334V16.8351C27.1348 18.1675 26.0208 19.2505 24.6519 19.2505H2.83838ZM1.93384 3.64847V16.52C1.93384 17.279 2.56763 17.8952 3.3479 17.8952H24.1423C24.9216 17.8952 25.5562 17.279 25.5562 16.52V3.64847C25.5562 2.89044 24.9216 2.27325 24.1423 2.27325H3.3479C2.56763 2.27325 1.93384 2.89044 1.93384 3.64847ZM23.2864 12.7364L21.9238 11.0118L20.5603 12.7364H16.1973V7.43217H20.6973L21.7878 9.02361L23.1514 7.43217H24.6509L22.6069 10.0838L24.6509 12.7364H23.2864ZM17.2908 11.6754H19.8799L21.1077 10.0856L20.0168 8.62619H17.2908V9.5533H19.7441V10.6143H17.2908V11.6754ZM13.6086 12.7364V8.89145L12.1084 12.7364H11.0176L9.51733 8.75847V12.7364H7.20068L6.79297 11.5431H4.47461L4.06519 12.7364H2.83765L4.88232 7.43217H6.38257L8.2915 12.4712V7.43217H10.1995L11.563 11.0118L12.9265 7.43217H14.6995V12.7364H13.6086ZM4.88232 10.3491H6.24683L5.56445 8.49321L4.88232 10.3491Z" fill="#303030"/>
</svg>
