<svg width="546" height="24" viewBox="0 0 546 24" fill="none" xmlns="http://www.w3.org/2000/svg">
<path d="M74.4583 17.9666C73.081 19.02 71.3437 19.6484 69.4555 19.6484C64.9816 19.6484 61.3555 16.1213 61.3555 11.7695C61.3555 7.41773 64.9816 3.89062 69.4555 3.89062C71.3437 3.89062 73.081 4.51899 74.4583 5.5724C75.8357 4.51945 77.5715 3.89062 79.4554 3.89062C83.9221 3.89062 87.5554 7.42474 87.5554 11.7695C87.5554 16.1143 83.9221 19.6484 79.4554 19.6484C77.5715 19.6484 75.8357 19.0195 74.4583 17.9666ZM79.4554 17.7032C82.8196 17.7032 85.5556 15.041 85.5556 11.7695C85.5556 8.49801 82.8196 5.83583 79.4554 5.83583C78.1198 5.83583 76.8831 6.25562 75.8772 6.96665C76.9295 8.29607 77.5555 9.96175 77.5555 11.7695C77.5555 13.5772 76.9295 15.2429 75.8772 16.5723C76.8831 17.2834 78.1198 17.7032 79.4554 17.7032Z" fill="#303030"/>
<path d="M400.091 16.2539H398.898C398.745 16.2539 398.661 16.1181 398.77 15.9687L400.062 14.1827L398.744 10.4297C398.675 10.2344 398.764 10.0756 398.983 10.0756H400.044C400.247 10.0756 400.358 10.155 400.403 10.2995L401.158 12.6874L402.848 10.3051C402.959 10.1486 403.036 10.0739 403.23 10.0739H404.359C404.564 10.0739 404.623 10.2566 404.498 10.4305L400.445 16.0847C400.378 16.1919 400.259 16.2562 400.133 16.2562C400.119 16.2562 400.105 16.2554 400.091 16.2539ZM410.285 12.6795C410.402 11.1516 411.49 9.95955 413.104 9.92703C413.799 9.9111 414.297 10.1129 414.492 10.5623C414.548 10.6894 414.607 10.6671 414.629 10.5409L414.672 10.2987C414.699 10.1446 414.749 10.0882 414.853 10.0882H416.003C416.157 10.0882 416.207 10.1851 416.174 10.3829L415.529 14.3201C415.486 14.5854 415.4 14.6545 415.224 14.6545H414.177C414.037 14.6545 413.977 14.5766 413.997 14.4297L414.035 14.1486C414.051 14.0311 413.941 14.0803 413.833 14.1756L413.838 14.178C413.419 14.5512 413.046 14.7895 412.214 14.7895C411.066 14.7895 410.195 13.8611 410.285 12.6795ZM411.879 12.3698C411.778 13.0305 412.263 13.5697 412.957 13.5697C413.652 13.5697 414.302 13.0305 414.402 12.3698C414.503 11.709 414.019 11.1699 413.324 11.1699C412.629 11.1699 411.979 11.709 411.879 12.3698ZM392.105 12.6795C392.222 11.1516 393.31 9.95955 394.924 9.92703C395.619 9.9111 396.117 10.1129 396.312 10.5623C396.368 10.6894 396.427 10.6671 396.449 10.5409L396.492 10.2987C396.519 10.1446 396.569 10.0882 396.673 10.0882H397.824C397.979 10.0882 398.028 10.1851 397.996 10.3829L397.351 14.3201C397.308 14.5854 397.222 14.6545 397.045 14.6545H395.999C395.858 14.6545 395.799 14.5766 395.818 14.4297L395.857 14.1486C395.872 14.0311 395.763 14.0803 395.655 14.1756L395.658 14.178C395.239 14.5512 394.866 14.7895 394.034 14.7895C392.886 14.7895 392.016 13.8611 392.105 12.6795ZM393.7 12.3698C393.599 13.0305 394.083 13.5697 394.778 13.5697C395.474 13.5697 396.123 13.0305 396.223 12.3698C396.324 11.709 395.84 11.1699 395.145 11.1699C394.45 11.1699 393.8 11.709 393.7 12.3698ZM417.785 14.6608H416.577C416.534 14.6627 416.493 14.646 416.464 14.6152C416.436 14.5845 416.423 14.543 416.429 14.502L417.49 7.96156C417.511 7.86966 417.594 7.80384 417.691 7.80276H418.899C418.942 7.80089 418.983 7.81754 419.012 7.84827C419.04 7.87903 419.053 7.92054 419.047 7.96156L417.986 14.502C417.966 14.5946 417.882 14.6611 417.785 14.6624L417.785 14.6608ZM404.758 14.6402C404.57 14.6402 404.505 14.5234 404.547 14.2622L405.521 8.19106C405.569 7.89247 405.684 7.78125 405.894 7.78125H408.714V7.78288C409.781 7.78288 410.765 8.34587 410.631 9.74914C410.467 11.4168 409.549 12.3396 408.1 12.3436H406.834C406.652 12.3436 406.564 12.4881 406.517 12.7843L406.272 14.2987C406.235 14.5274 406.114 14.6402 405.936 14.6402H404.758ZM408.007 9.10668L407.105 9.11063L406.795 11.0324H407.754C408.354 11.0102 408.753 10.606 408.793 9.87701C408.817 9.42838 408.507 9.10668 408.013 9.10667C408.011 9.10667 408.009 9.10667 408.007 9.10668ZM386.579 14.6402C386.391 14.6402 386.326 14.5234 386.368 14.2622L387.34 8.19264C387.388 7.89404 387.503 7.78288 387.713 7.78288H390.533H390.535C391.602 7.78288 392.587 8.34587 392.452 9.74914C392.289 11.4168 391.371 12.3396 389.921 12.3436H388.655C388.473 12.3436 388.385 12.4881 388.338 12.7843L388.093 14.2987C388.056 14.5274 387.935 14.6402 387.757 14.6402H386.579ZM389.829 9.10668L388.926 9.11063L388.617 11.0324H389.576C390.176 11.0102 390.575 10.606 390.615 9.87701C390.639 9.42838 390.329 9.10668 389.835 9.10667C389.833 9.10667 389.831 9.10667 389.829 9.10668Z" fill="#303030"/>
<path d="M261.407 8.50373C261.771 8.38546 262.16 8.32191 262.565 8.32191C264.332 8.32191 265.807 9.5425 266.145 11.1649L268.649 10.668C268.074 7.91094 265.569 5.83594 262.565 5.83594C261.877 5.83594 261.215 5.94507 260.597 6.14613L261.407 8.50373Z" fill="#303030"/>
<path d="M258.452 16.3985L260.145 14.5361C259.389 13.8846 258.913 12.9338 258.913 11.8746C258.913 10.8153 259.389 9.86579 260.144 9.21513L258.45 7.35254C257.167 8.4588 256.356 10.0749 256.356 11.8746C256.356 13.6742 257.167 15.2921 258.452 16.3985Z" fill="#303030"/>
<path d="M266.144 12.5869C265.805 14.2085 264.332 15.4268 262.565 15.4268C262.16 15.4268 261.77 15.3632 261.406 15.2443L260.595 17.603C261.214 17.8039 261.876 17.9127 262.565 17.9127C265.567 17.9127 268.071 15.8412 268.648 13.0865L266.144 12.5869Z" fill="#303030"/>
<path d="M270.839 14.6145C270.757 14.4851 270.646 14.2784 270.579 14.1262C270.182 13.2306 270.163 12.3038 270.498 11.4141C270.866 10.4384 271.57 9.6914 272.479 9.31103C273.621 8.83272 274.885 8.92703 275.98 9.55908C276.676 9.94734 277.169 10.5468 277.543 11.3944C277.591 11.5029 277.633 11.6188 277.674 11.7172L270.839 14.6145ZM273.122 10.7488C272.31 11.088 271.892 11.8284 271.978 12.6965L275.415 11.2575C274.824 10.5819 274.055 10.358 273.122 10.7488ZM275.844 13.8797C275.843 13.8804 275.843 13.881 275.842 13.8816L275.771 13.835C275.566 14.1587 275.246 14.421 274.842 14.5913C274.073 14.9163 273.361 14.8327 272.85 14.3965L272.803 14.4661C272.803 14.4661 272.802 14.4646 272.802 14.4646L271.93 15.7336C272.146 15.88 272.378 16.0039 272.623 16.103C273.586 16.4922 274.572 16.4742 275.543 16.0634C276.245 15.7674 276.796 15.3159 277.173 14.7438L275.844 13.8797Z" fill="#303030"/>
<path d="M280.063 7.44238V14.4975L281.191 14.9421L280.55 16.3964L279.305 15.8922C279.026 15.7746 278.836 15.5945 278.692 15.3912C278.554 15.184 278.451 14.8997 278.451 14.5168V7.44238H280.063Z" fill="#303030"/>
<path d="M282.985 12.7C282.985 12.0991 283.258 11.5604 283.69 11.1943L282.533 9.93945C281.748 10.6141 281.254 11.5999 281.253 12.6982C281.252 13.7969 281.745 14.7838 282.529 15.4602L283.685 14.2041C283.255 13.8364 282.984 13.2994 282.985 12.7Z" fill="#303030"/>
<path d="M285.04 14.7024C284.812 14.7018 284.593 14.6652 284.389 14.5989L283.836 16.1969C284.214 16.3202 284.618 16.3874 285.038 16.3881C286.87 16.3898 288.4 15.1255 288.754 13.4448L287.056 13.1074C286.863 14.0188 286.034 14.7032 285.04 14.7024Z" fill="#303030"/>
<path d="M285.045 9.01563C284.625 9.01515 284.221 9.08154 283.844 9.20377L284.391 10.8032C284.597 10.7372 284.816 10.7008 285.044 10.7008C286.039 10.7017 286.869 11.3904 287.058 12.304L288.756 11.9689C288.407 10.2859 286.879 9.01689 285.045 9.01563Z" fill="#303030"/>
<path d="M202.121 19.5676L187.355 19.5726V19.5387C187.355 19.52 187.379 19.3989 187.408 19.2695C187.437 19.1402 187.481 18.9343 187.507 18.8122C187.533 18.69 187.578 18.4826 187.606 18.3509C187.675 18.0293 187.744 17.7077 187.811 17.3858C187.838 17.2589 187.882 17.0513 187.91 16.9246C187.945 16.7623 187.98 16.6 188.015 16.4376C188.045 16.2966 188.091 16.0814 188.116 15.9592C188.142 15.837 188.183 15.6488 188.207 15.5407C188.231 15.4327 188.262 15.2866 188.276 15.2162C188.289 15.1456 188.333 14.9381 188.373 14.7549C188.407 14.6014 188.44 14.4476 188.472 14.2937C188.486 14.2232 188.53 14.0156 188.57 13.8324C188.61 13.6493 188.655 13.4416 188.668 13.3712C188.682 13.3007 188.727 13.093 188.767 12.91C188.808 12.7267 188.852 12.5229 188.865 12.4572C188.878 12.3914 188.913 12.2223 188.943 12.0814C188.974 11.9404 189.031 11.6752 189.071 11.492C189.111 11.3087 189.179 10.9897 189.223 10.783C189.266 10.5762 189.318 10.3303 189.338 10.2363C189.397 9.96001 189.457 9.6839 189.517 9.40781C189.546 9.27157 189.594 9.04861 189.624 8.91229C189.653 8.77609 189.698 8.56459 189.724 8.44253C189.749 8.32035 189.794 8.11665 189.822 7.98984C189.85 7.86293 189.898 7.63998 189.929 7.49433C189.96 7.34873 190.012 7.12579 190.044 6.99891C190.076 6.87206 190.122 6.71834 190.146 6.65726C190.169 6.59616 190.234 6.46378 190.29 6.36306L190.392 6.17992L190.484 6.06405C190.535 6.00037 190.626 5.8998 190.686 5.84046C190.746 5.78112 190.848 5.69189 190.912 5.64213C190.976 5.59232 191.068 5.52511 191.117 5.49284C191.166 5.46052 191.263 5.40392 191.332 5.36701C191.4 5.3302 191.497 5.28201 191.546 5.25988C191.595 5.23775 191.696 5.19726 191.77 5.16998C191.843 5.14286 191.984 5.09722 192.082 5.06864C192.181 5.04011 192.365 4.99705 192.492 4.97311C192.619 4.94901 192.821 4.91689 192.939 4.90169L193.155 4.874L207.929 4.86868L222.703 4.86328V4.89721C222.703 4.91585 222.68 5.03694 222.651 5.16634C222.614 5.33001 222.578 5.49388 222.543 5.6578C222.513 5.79877 222.469 6.00256 222.445 6.11053C222.412 6.26425 222.379 6.41797 222.346 6.5718C222.315 6.71751 222.267 6.94051 222.239 7.06722C222.212 7.19413 222.168 7.40172 222.141 7.52859C222.114 7.65539 222.069 7.86293 222.042 7.98981C222.009 8.1378 221.978 8.28584 221.946 8.43399C221.921 8.55143 221.876 8.76278 221.847 8.90375C221.816 9.04466 221.768 9.26762 221.739 9.39921C221.71 9.5307 221.666 9.73444 221.641 9.85189C221.616 9.96927 221.571 10.1807 221.541 10.3216C221.511 10.4626 221.463 10.6855 221.434 10.8171C221.405 10.9487 221.362 11.1485 221.338 11.2613C221.272 11.5746 221.206 11.8878 221.139 12.2009C221.114 12.3136 221.071 12.5136 221.043 12.645C221.006 12.813 220.97 12.981 220.934 13.1491C220.903 13.2948 220.858 13.5021 220.835 13.6103C220.812 13.7183 220.768 13.9221 220.738 14.0629C220.703 14.2282 220.667 14.3934 220.632 14.5585C220.603 14.69 220.559 14.8976 220.533 15.0198C220.507 15.1419 220.461 15.3533 220.432 15.4895C220.403 15.6257 220.355 15.8486 220.326 15.9849C220.297 16.1212 220.253 16.3249 220.229 16.4377C220.196 16.5914 220.163 16.7451 220.13 16.8988C220.095 17.0636 220.059 17.2281 220.022 17.3925L219.968 17.6297L219.904 17.7938C219.869 17.8842 219.816 18.0042 219.786 18.0605C219.757 18.1169 219.697 18.2164 219.653 18.2816C219.609 18.3468 219.547 18.4302 219.516 18.4671C219.485 18.5041 219.392 18.5994 219.309 18.6789L219.159 18.8235L219.014 18.922C218.934 18.9762 218.848 19.0314 218.823 19.0445C218.797 19.0577 218.701 19.1046 218.609 19.1488C218.517 19.1929 218.387 19.2491 218.32 19.2735C218.253 19.2982 218.12 19.3399 218.025 19.3663C217.93 19.3929 217.828 19.4189 217.798 19.4243C217.769 19.4298 217.666 19.4499 217.571 19.4693C217.475 19.4886 217.282 19.5176 217.142 19.5335L216.887 19.5625L202.121 19.5676ZM196.867 15.9165H197.252L197.263 15.8894C197.269 15.8745 197.273 15.8396 197.273 15.8119C197.273 15.7839 197.286 15.6827 197.302 15.5868C197.317 15.4909 197.353 15.2702 197.382 15.0964C197.411 14.9225 197.454 14.6613 197.479 14.5156C197.501 14.3777 197.523 14.2396 197.544 14.1013C197.555 14.0191 197.57 13.9518 197.576 13.9518C197.581 13.9518 197.606 13.9881 197.631 14.0326L197.675 14.1133L197.775 14.2087L197.874 14.3041L197.996 14.3508L198.118 14.3975L198.263 14.4155L198.408 14.4335L198.593 14.4227L198.777 14.4119L198.977 14.3625L199.177 14.313L199.284 14.2663C199.343 14.2406 199.447 14.1845 199.516 14.1416L199.641 14.0638L199.758 13.9522C199.822 13.8911 199.913 13.7927 199.959 13.734C200.005 13.6751 200.043 13.6226 200.043 13.6174C200.043 13.6121 200.066 13.5758 200.094 13.5364C200.122 13.4972 200.179 13.3881 200.221 13.2942C200.263 13.2002 200.328 13.0311 200.366 12.9183L200.435 12.7133L200.471 12.5358C200.491 12.4381 200.516 12.2767 200.528 12.177L200.548 11.9958L200.536 11.8421L200.524 11.6884L200.487 11.5345L200.45 11.3808L200.389 11.2657L200.329 11.1505L200.212 11.0324L200.096 10.9142L199.958 10.846L199.82 10.7778L199.668 10.743L199.516 10.7083L199.364 10.6977L199.212 10.687L199.043 10.7056L198.874 10.7241L198.736 10.7578L198.598 10.7914L198.478 10.8446C198.412 10.8737 198.316 10.9233 198.264 10.9548C198.213 10.9862 198.16 11.0223 198.147 11.0351C198.133 11.0478 198.101 11.0715 198.075 11.0876L198.028 11.1169L198.061 10.9668C198.079 10.8843 198.094 10.8073 198.095 10.7954L198.095 10.7741H197.44L197.383 11.1201C197.351 11.3104 197.301 11.6044 197.272 11.7736C197.207 12.1467 197.142 12.5196 197.075 12.8925C197.046 13.0569 196.998 13.3184 196.968 13.4733C196.938 13.6284 196.894 13.8552 196.871 13.9775C196.847 14.0996 196.803 14.3301 196.772 14.4899C196.736 14.6778 196.7 14.8658 196.663 15.0536C196.628 15.2304 196.592 15.4068 196.556 15.5832C196.527 15.7241 196.498 15.8568 196.493 15.878L196.483 15.9164L196.867 15.9165ZM198.522 13.9413L198.372 13.9499L198.275 13.9334L198.177 13.917L198.078 13.8738L197.979 13.8305L197.91 13.7673L197.841 13.7042L197.801 13.6188C197.779 13.5718 197.751 13.4919 197.738 13.4413L197.715 13.3494L197.725 13.2021L197.734 13.055L197.78 12.8243C197.815 12.648 197.848 12.4715 197.881 12.2948C197.911 12.1303 197.957 11.8893 197.983 11.7593L198.029 11.5229L198.132 11.4414C198.188 11.3966 198.278 11.3365 198.33 11.308L198.426 11.2559L198.551 11.2189L198.676 11.1819L198.837 11.1729L198.998 11.1638L199.129 11.1906L199.26 11.2172L199.352 11.2579L199.445 11.2986L199.522 11.3731L199.6 11.4476L199.642 11.5265C199.665 11.5698 199.697 11.6548 199.713 11.7151L199.743 11.8249L199.734 12.1496L199.725 12.4742L199.679 12.666C199.654 12.7715 199.606 12.933 199.572 13.0248L199.512 13.1917L199.437 13.3268C199.396 13.401 199.333 13.5015 199.296 13.5499C199.26 13.5984 199.202 13.6612 199.168 13.6893C199.126 13.7232 199.083 13.756 199.04 13.7875L198.974 13.8342L198.823 13.8834L198.671 13.9327L198.522 13.9413ZM202.232 14.4108L202.429 14.4131L202.626 14.3959C202.734 14.3865 202.911 14.3668 203.019 14.3523C203.127 14.3378 203.314 14.3051 203.434 14.2799L203.652 14.2339L203.663 14.1569C203.669 14.1146 203.694 13.9886 203.718 13.8767L203.761 13.6737L203.752 13.6645L203.742 13.6553L203.675 13.6861C203.638 13.703 203.524 13.7435 203.421 13.776L203.234 13.835L203.037 13.8715L202.84 13.908L202.527 13.9086L202.215 13.9091L202.107 13.8763C202.048 13.8584 201.962 13.8255 201.915 13.8032L201.829 13.7628L201.758 13.7018L201.688 13.6408L201.633 13.5488L201.578 13.4566L201.543 13.3413L201.509 13.2258L201.508 13.0122L201.508 12.7986L201.539 12.608L201.569 12.4175L201.838 12.4055L202.107 12.3935L203.101 12.3997L204.095 12.4057L204.125 12.284C204.142 12.217 204.167 12.0787 204.181 11.9765L204.207 11.7907L204.208 11.6345L204.209 11.4782L204.18 11.3614L204.152 11.2448L204.105 11.1676C204.08 11.1251 204.034 11.0635 204.004 11.0307C203.975 10.9979 203.922 10.9517 203.887 10.928C203.852 10.9043 203.783 10.8645 203.734 10.8395L203.644 10.7941L203.488 10.7582L203.332 10.7223L203.14 10.7047L202.947 10.6871L202.768 10.6982L202.59 10.7094L202.375 10.7487L202.161 10.7881L202.027 10.8393C201.953 10.8674 201.84 10.9188 201.776 10.9534C201.713 10.9881 201.624 11.0444 201.58 11.0787C201.536 11.1129 201.459 11.1796 201.41 11.2267C201.36 11.2739 201.287 11.3585 201.248 11.4149C201.208 11.4713 201.147 11.5712 201.112 11.637C201.077 11.7028 201.031 11.795 201.011 11.842C200.99 11.889 200.953 11.9851 200.927 12.0556C200.902 12.1261 200.862 12.2606 200.839 12.3546C200.812 12.4685 200.788 12.583 200.769 12.6982L200.74 12.8712L200.74 13.1254L200.741 13.3796L200.768 13.4906C200.783 13.5517 200.811 13.644 200.831 13.6957C200.851 13.7473 200.888 13.8243 200.913 13.8664C200.939 13.9087 200.992 13.9769 201.033 14.0178C201.073 14.0587 201.147 14.1208 201.196 14.1558C201.245 14.1906 201.332 14.2398 201.39 14.2651L201.495 14.3107L201.642 14.3446C201.722 14.3631 201.844 14.3853 201.912 14.3937C201.98 14.402 202.124 14.4098 202.232 14.4108ZM202.569 12.0043C202.074 12.0043 201.67 12.001 201.67 11.9967C201.67 11.9925 201.691 11.933 201.716 11.8644C201.742 11.7957 201.788 11.6935 201.817 11.6372L201.871 11.5349L201.989 11.4226L202.107 11.3101L202.224 11.257C202.287 11.2278 202.372 11.196 202.411 11.1863C202.45 11.1767 202.563 11.1639 202.661 11.1579L202.84 11.1469L202.977 11.1637L203.114 11.1806L203.214 11.2243L203.314 11.268L203.369 11.3243C203.399 11.3554 203.434 11.401 203.448 11.4258L203.473 11.4709L203.49 11.571L203.506 11.6711L203.487 11.8377L203.468 12.0042L202.569 12.0043ZM207.915 14.4109L208.112 14.4131L208.335 14.3878C208.458 14.3739 208.622 14.3509 208.699 14.3366C208.792 14.3186 208.884 14.2977 208.976 14.2737C209.051 14.2533 209.119 14.2314 209.127 14.2248C209.135 14.2182 209.156 14.1407 209.174 14.0525C209.192 13.9643 209.215 13.8459 209.225 13.7895C209.235 13.7332 209.24 13.6841 209.236 13.6803C209.232 13.6767 209.219 13.6814 209.207 13.6909C209.194 13.7005 209.107 13.7357 209.012 13.7693L208.84 13.8304L208.595 13.8757L208.35 13.9212L208.141 13.9144L207.933 13.9076L207.815 13.8683L207.696 13.829L207.605 13.7526L207.513 13.6761L207.453 13.5705L207.392 13.465L207.363 13.3236L207.334 13.1824L207.335 12.9991L207.335 12.8158L207.37 12.5936L207.405 12.3715L207.442 12.2519C207.462 12.1861 207.486 12.1093 207.493 12.0811C207.501 12.0529 207.534 11.9722 207.566 11.9017C207.598 11.8313 207.656 11.7224 207.694 11.6597L207.763 11.5458L207.848 11.4616L207.933 11.3774L208.023 11.3242L208.113 11.2709L208.229 11.2368C208.292 11.2181 208.404 11.1938 208.478 11.1829L208.612 11.1629L208.809 11.1723L209.005 11.1818L209.238 11.2263L209.47 11.2707L209.564 11.3043C209.616 11.3229 209.661 11.338 209.664 11.338C209.667 11.338 209.679 11.2746 209.692 11.197C209.704 11.1195 209.726 10.992 209.741 10.9137C209.756 10.8353 209.764 10.7678 209.76 10.7637C209.755 10.7595 209.686 10.749 209.605 10.7402C209.524 10.7314 209.303 10.7157 209.115 10.7053L208.773 10.6865L208.532 10.7042L208.291 10.722L208.112 10.7578L207.933 10.7937L207.818 10.8377C207.755 10.8619 207.662 10.9057 207.612 10.9347C207.564 10.9626 207.517 10.9917 207.471 11.0219C207.443 11.0407 207.358 11.1141 207.283 11.1849L207.146 11.3137L207.07 11.4207C207.028 11.4796 206.955 11.6022 206.908 11.6934L206.823 11.8592L206.758 12.0385C206.722 12.1371 206.672 12.2986 206.646 12.3972L206.6 12.5766L206.584 12.739L206.567 12.9013L206.567 13.1148L206.567 13.3284L206.584 13.4525L206.601 13.5768L206.655 13.7047L206.708 13.8324L206.77 13.9247L206.832 14.0172L206.93 14.1096L207.028 14.202L207.132 14.2547L207.236 14.3072L207.373 14.3435C207.448 14.3634 207.557 14.3863 207.614 14.3944C207.672 14.4024 207.807 14.4099 207.915 14.4109ZM210.855 14.4047L211.096 14.3981L211.248 14.3609L211.4 14.3236L211.498 14.2793C211.552 14.2548 211.641 14.2067 211.695 14.1721C211.749 14.1376 211.833 14.0719 211.881 14.0264C211.929 13.9806 212 13.9027 212.04 13.8531C212.079 13.8035 212.113 13.7652 212.116 13.7679C212.119 13.7707 212.11 13.8497 212.096 13.9435C212.082 14.0373 212.071 14.1621 212.07 14.2208L212.07 14.3276H212.726L212.736 14.0841L212.746 13.8407L212.793 13.5246C212.819 13.3508 212.86 13.0933 212.885 12.9523C212.91 12.8114 212.954 12.5731 212.982 12.4227C213.01 12.2724 213.055 12.0379 213.082 11.9017L213.13 11.654L213.131 11.44L213.133 11.2261L213.082 11.1272L213.031 11.0283L212.963 10.9654L212.894 10.9023L212.782 10.8478L212.669 10.7931L212.501 10.7574L212.333 10.7216L212.102 10.7049L211.871 10.6881L211.573 10.7058C211.409 10.7154 211.179 10.7346 211.061 10.7482L210.846 10.7731L210.7 10.7736L210.554 10.7742L210.533 10.8725C210.521 10.9265 210.488 11.0548 210.461 11.1578C210.432 11.2607 210.412 11.3472 210.415 11.3502C210.418 11.3534 210.497 11.3363 210.589 11.3126C210.681 11.2888 210.878 11.2497 211.025 11.2257L211.293 11.182L211.534 11.1726L211.776 11.163L211.931 11.189L212.086 11.2151L212.19 11.264L212.294 11.313L212.352 11.3957L212.41 11.4785L212.409 11.6089L212.408 11.7394L212.377 11.8826L212.347 12.0257L211.704 12.028L211.061 12.0302L210.85 12.0854C210.734 12.1157 210.606 12.156 210.565 12.1749C210.524 12.1938 210.483 12.2093 210.474 12.2093C210.465 12.2093 210.397 12.2457 210.321 12.2904L210.185 12.3715L210.078 12.4741C210.018 12.5304 209.943 12.615 209.91 12.6621C209.877 12.709 209.823 12.807 209.79 12.8801L209.731 13.0127L209.703 13.162L209.676 13.311V13.6242L209.702 13.7546L209.728 13.8848L209.776 13.9699C209.803 14.0166 209.852 14.0851 209.885 14.1221L209.945 14.1891L210.052 14.2512L210.159 14.3134L210.281 14.3464C210.348 14.3645 210.451 14.3866 210.509 14.3954L210.614 14.4112L210.855 14.4047ZM211.078 13.9269L210.935 13.9342L210.841 13.9111C210.788 13.8984 210.71 13.8702 210.665 13.8483L210.584 13.8085L210.54 13.7583C210.516 13.7306 210.479 13.6765 210.457 13.6379L210.419 13.5675L210.412 13.4032L210.404 13.239L210.434 13.1394C210.451 13.0846 210.49 12.9895 210.521 12.9281L210.578 12.8164L210.686 12.7136L210.794 12.6107L210.909 12.5578L211.024 12.5049L211.167 12.4723L211.31 12.4399H212.204L212.232 12.451L212.26 12.4622L212.237 12.5963C212.224 12.67 212.192 12.8034 212.167 12.8926C212.142 12.9819 212.098 13.113 212.069 13.1843C212.04 13.2553 212.016 13.3182 212.016 13.324C212.016 13.3297 211.987 13.3815 211.951 13.4391L211.886 13.5439L211.779 13.6454C211.72 13.7011 211.665 13.7468 211.657 13.7468C211.649 13.7468 211.613 13.766 211.577 13.7895L211.511 13.8322L211.366 13.876L211.221 13.9198L211.078 13.9269ZM216.895 14.4108L217.065 14.4128L217.226 14.3878C217.314 14.3742 217.427 14.3521 217.476 14.3387C217.525 14.3254 217.614 14.291 217.672 14.2621L217.78 14.2096L217.872 14.132L217.964 14.0543L218.061 13.9304C218.115 13.8624 218.163 13.7951 218.169 13.781L218.179 13.7554L218.17 13.8408C218.164 13.898 218.156 13.955 218.145 14.0117C218.137 14.0587 218.124 14.149 218.118 14.2123L218.106 14.3277H218.807V14.097L218.861 13.6614C218.89 13.4217 218.933 13.1028 218.957 12.9524C218.981 12.8021 219.017 12.5869 219.039 12.4742C219.059 12.3614 219.097 12.1576 219.121 12.0214C219.146 11.8852 219.19 11.6469 219.22 11.4918C219.249 11.3368 219.296 11.0908 219.325 10.9451C219.353 10.7995 219.397 10.5727 219.422 10.4412C219.448 10.3097 219.493 10.0789 219.524 9.92867C219.555 9.77183 219.588 9.61524 219.622 9.45881C219.646 9.35078 219.665 9.25662 219.665 9.24959V9.23674H218.9L218.889 9.34351C218.883 9.40233 218.853 9.59629 218.824 9.7749C218.789 9.98572 218.753 10.1964 218.717 10.407C218.695 10.5285 218.674 10.65 218.654 10.7715L218.644 10.8284L218.614 10.8162C218.597 10.8094 218.507 10.7855 218.414 10.7631L218.244 10.7224L218.012 10.7051L217.78 10.6878L217.583 10.7053L217.387 10.7228L217.208 10.766L217.029 10.8092L216.859 10.8884L216.689 10.9675L216.564 11.056L216.439 11.1445L216.331 11.2553C216.272 11.3163 216.186 11.4169 216.14 11.4792L216.058 11.5923L215.961 11.7855C215.907 11.8918 215.842 12.0327 215.816 12.0983C215.79 12.1642 215.744 12.3099 215.714 12.4224L215.66 12.6268L215.633 12.8924L215.606 13.1576L215.626 13.3712L215.646 13.5848L215.67 13.6616C215.683 13.704 215.711 13.7794 215.732 13.8291L215.769 13.9196L215.838 14.0086L215.907 14.0977L215.986 14.1592L216.064 14.2207L216.171 14.2716C216.23 14.2995 216.329 14.3358 216.391 14.3519C216.453 14.3681 216.554 14.3877 216.615 14.3953C216.675 14.4025 216.802 14.4097 216.895 14.4108ZM217.2 13.9261L217.065 13.9328L216.974 13.9174C216.924 13.9087 216.844 13.8855 216.796 13.8659L216.709 13.8303L216.635 13.7729L216.562 13.7155L216.508 13.6158L216.453 13.5162L216.428 13.4051L216.404 13.2941L216.406 13.072L216.408 12.8499L216.437 12.6533L216.465 12.457L216.51 12.3203C216.535 12.2452 216.555 12.1742 216.555 12.1627C216.555 12.1511 216.58 12.0898 216.609 12.0261C216.644 11.9524 216.681 11.8797 216.719 11.8078C216.75 11.7514 216.808 11.6635 216.847 11.6125C216.887 11.5615 216.957 11.4846 217.004 11.4416C217.05 11.3988 217.124 11.3425 217.169 11.3166L217.248 11.2696L217.389 11.2231L217.529 11.1765L217.824 11.1763H218.119L218.289 11.2214C218.382 11.2462 218.482 11.2748 218.509 11.2852L218.56 11.304L218.55 11.3509C218.545 11.3766 218.523 11.49 218.503 11.6027C218.482 11.7155 218.442 11.9308 218.413 12.0811C218.384 12.2314 218.34 12.4583 218.314 12.5851C218.289 12.712 218.252 12.8734 218.232 12.9438C218.212 13.0163 218.192 13.0885 218.171 13.1608C218.157 13.2096 218.123 13.2942 218.096 13.3487C218.069 13.4031 218.022 13.4824 217.991 13.5247C217.96 13.567 217.908 13.6256 217.875 13.6548C217.842 13.6842 217.771 13.7362 217.717 13.7705L217.619 13.8331L217.477 13.8761L217.335 13.9192L217.2 13.9261ZM190.899 14.3277H191.333L191.364 14.1441C191.381 14.043 191.415 13.8489 191.439 13.7128L191.537 13.149C191.567 12.9751 191.613 12.7176 191.638 12.5766C191.663 12.4357 191.703 12.2171 191.727 12.0909C191.751 11.9645 191.775 11.8569 191.78 11.8516L191.79 11.842H194.125L194.138 11.8544L194.151 11.8668L194.131 11.9654C194.12 12.0197 194.087 12.1871 194.058 12.3374C194.029 12.4877 193.98 12.7415 193.949 12.9012C193.916 13.0693 193.884 13.2373 193.85 13.4052C193.827 13.5227 193.779 13.7685 193.744 13.9518C193.709 14.1351 193.681 14.2946 193.681 14.3064L193.681 14.3277H194.553L194.573 14.2209C194.583 14.1622 194.6 14.0565 194.611 13.986C194.621 13.9156 194.646 13.7656 194.666 13.6529C194.686 13.5402 194.725 13.3171 194.754 13.1574C194.783 12.9977 194.831 12.7248 194.861 12.551C194.891 12.3771 194.936 12.1234 194.96 11.9873C194.991 11.8162 195.024 11.6454 195.057 11.4747C195.086 11.329 195.134 11.0831 195.164 10.928C195.194 10.773 195.239 10.5385 195.263 10.407C195.288 10.2755 195.333 10.0371 195.364 9.8774C195.394 9.71764 195.433 9.53122 195.45 9.46308L195.48 9.33913H194.597L194.585 9.42039C194.578 9.46491 194.557 9.59006 194.537 9.69796C194.518 9.80613 194.483 9.99822 194.459 10.1251C194.435 10.252 194.391 10.494 194.362 10.6633C194.333 10.829 194.305 10.9948 194.279 11.1608L194.249 11.3507L193.601 11.3633L192.953 11.3758L192.41 11.3635C192.112 11.3567 191.866 11.3498 191.864 11.3483C191.862 11.3466 191.872 11.2802 191.886 11.2007C191.905 11.0982 191.926 10.9959 191.947 10.8938C191.975 10.7629 192.001 10.632 192.027 10.5008C192.052 10.374 192.08 10.2164 192.09 10.1506C192.099 10.0849 192.12 9.97537 192.135 9.90711C192.15 9.83903 192.178 9.69557 192.198 9.58838C192.218 9.4811 192.239 9.38114 192.245 9.36622L192.255 9.33909H191.38L191.352 9.48864C191.336 9.57089 191.316 9.68813 191.306 9.74913C191.296 9.81024 191.264 10.0062 191.233 10.1848C191.203 10.3633 191.159 10.6286 191.135 10.7742L191.036 11.3635C191.002 11.5687 190.966 11.7738 190.927 11.9785C190.896 12.1466 190.863 12.3146 190.83 12.4825C190.807 12.5999 190.763 12.8229 190.732 12.9779C190.699 13.1404 190.666 13.3027 190.632 13.4649C190.607 13.5775 190.58 13.7082 190.572 13.7552C190.564 13.8022 190.536 13.9377 190.511 14.0564C190.485 14.1749 190.465 14.2845 190.465 14.2999V14.3276L190.899 14.3277ZM195.706 14.3277H196.09L196.101 14.3006C196.107 14.2857 196.112 14.2467 196.112 14.2141C196.112 14.1813 196.136 14.0109 196.165 13.8353C196.233 13.4354 196.302 13.0358 196.373 12.6364C196.403 12.4682 196.435 12.3002 196.469 12.1324C196.497 11.9915 196.541 11.7724 196.566 11.6455C196.591 11.5187 196.64 11.2774 196.675 11.1092C196.71 10.9411 196.743 10.7968 196.748 10.7886L196.758 10.7736L196.369 10.7781L195.98 10.7827L195.948 11.005C195.93 11.1271 195.891 11.3693 195.861 11.543C195.832 11.7169 195.787 11.9822 195.761 12.1324C195.731 12.3121 195.698 12.4915 195.663 12.6705C195.635 12.8162 195.591 13.0391 195.566 13.166C195.541 13.293 195.496 13.5158 195.466 13.6614C195.437 13.8071 195.397 13.9993 195.378 14.0885C195.359 14.1779 195.338 14.2682 195.332 14.2892L195.321 14.3277H195.706ZM204.696 14.3277H205.077L205.089 14.1734C205.095 14.0885 205.117 13.9175 205.137 13.7932C205.157 13.669 205.198 13.4214 205.228 13.2429C205.267 13.0222 205.308 12.802 205.353 12.5825C205.391 12.3978 205.435 12.2142 205.449 12.1746C205.464 12.1349 205.476 12.092 205.476 12.0791C205.476 12.0662 205.505 11.996 205.54 11.9232C205.575 11.8503 205.64 11.7388 205.685 11.6752L205.766 11.5598L205.875 11.4633L205.984 11.3668L206.119 11.3054L206.253 11.244L206.459 11.2451L206.664 11.2462L206.765 11.2749C206.821 11.2909 206.871 11.3039 206.877 11.3039C206.883 11.3039 206.888 11.2857 206.888 11.2635C206.888 11.2414 206.908 11.1288 206.932 11.0134C206.957 10.8981 206.977 10.7989 206.977 10.793C206.977 10.787 206.919 10.7651 206.847 10.7444C206.776 10.7238 206.678 10.7021 206.629 10.6963L206.539 10.6857L206.423 10.7053C206.359 10.7161 206.264 10.74 206.212 10.7584C206.16 10.7766 206.074 10.8183 206.02 10.8507C205.967 10.8834 205.885 10.9467 205.837 10.9915C205.789 11.0365 205.708 11.1271 205.658 11.1928C205.618 11.244 205.579 11.2952 205.54 11.3466L205.514 11.3807L205.53 11.3124C205.538 11.2747 205.562 11.1517 205.583 11.0391C205.603 10.9263 205.624 10.8205 205.63 10.8041L205.639 10.7742H204.958V10.8154C204.958 10.8381 204.938 10.9745 204.913 11.1186C204.888 11.2628 204.848 11.5037 204.823 11.6541C204.798 11.8044 204.754 12.0658 204.725 12.2349C204.693 12.4145 204.661 12.5939 204.626 12.7729C204.559 13.1149 204.49 13.4566 204.42 13.798C204.39 13.9437 204.354 14.1157 204.34 14.1803C204.326 14.2447 204.314 14.3042 204.314 14.3126V14.3276L204.696 14.3277ZM213.753 14.3277H214.143V14.0994L214.188 13.8163C214.213 13.6608 214.254 13.4141 214.279 13.2685C214.304 13.1229 214.335 12.9384 214.349 12.8584C214.362 12.7786 214.396 12.6057 214.426 12.4741C214.455 12.3425 214.492 12.2003 214.508 12.158C214.523 12.1158 214.536 12.0714 214.536 12.0595C214.536 12.0475 214.57 11.9708 214.61 11.8889L214.684 11.74L214.781 11.6166L214.878 11.4933L214.984 11.4168C215.043 11.3747 215.137 11.319 215.193 11.2929L215.296 11.2454L215.519 11.2468L215.743 11.2483L215.831 11.2754L215.919 11.3024L215.933 11.2935L215.948 11.2848L215.949 11.2303C215.949 11.2002 215.968 11.0887 215.991 10.9823L216.033 10.7889L215.986 10.7713C215.941 10.7553 215.896 10.7405 215.85 10.7269L215.761 10.6999L215.6 10.7004L215.439 10.7008L215.308 10.7449L215.177 10.7889L215.078 10.8457L214.98 10.9025L214.852 11.0306L214.724 11.1587L214.655 11.2582C214.617 11.3128 214.584 11.355 214.581 11.352C214.578 11.3491 214.599 11.2352 214.627 11.099C214.655 10.9627 214.678 10.8339 214.679 10.8128L214.679 10.7744H214.018V10.7853C214.018 10.7912 214.002 10.9009 213.981 11.0288C213.961 11.1567 213.921 11.4035 213.892 11.5774C213.856 11.7853 213.821 11.9931 213.785 12.2009C213.753 12.3806 213.721 12.5599 213.686 12.7391C213.661 12.8659 213.617 13.0888 213.588 13.2345C213.559 13.3802 213.511 13.6147 213.482 13.7556L213.396 14.1699L213.363 14.3278L213.753 14.3277ZM196.462 10.1589L196.57 10.1593L196.656 10.1312L196.743 10.1031L196.819 10.029L196.895 9.95511L196.936 9.85641L196.976 9.75777L196.977 9.61259L196.979 9.46746L196.943 9.41066L196.907 9.35392L196.845 9.31721L196.783 9.28031H196.514L196.423 9.31947L196.331 9.35861L196.278 9.413L196.225 9.46746L196.183 9.56141L196.142 9.65532L196.134 9.80171L196.126 9.94804L196.165 10.0208L196.203 10.0935L196.278 10.126L196.353 10.1584L196.462 10.1589Z" fill="#303030"/>
<path d="M2.83838 21.2504C1.46875 21.2504 0.355469 20.1674 0.355469 18.835V5.33321C0.355469 4.00169 1.46875 2.91797 2.83838 2.91797H24.6519C26.0208 2.91797 27.1348 4.00169 27.1348 5.33321V18.835C27.1348 20.1674 26.0208 21.2504 24.6519 21.2504H2.83838ZM1.93384 5.64834V18.5199C1.93384 19.2789 2.56763 19.8951 3.3479 19.8951H24.1423C24.9216 19.8951 25.5562 19.2789 25.5562 18.5199V5.64834C25.5562 4.89032 24.9216 4.27312 24.1423 4.27312H3.3479C2.56763 4.27312 1.93384 4.89032 1.93384 5.64834ZM23.2864 14.7363L21.9238 13.0116L20.5603 14.7363H16.1973V9.43204H20.6973L21.7878 11.0235L23.1514 9.43204H24.6509L22.6069 12.0837L24.6509 14.7363H23.2864ZM17.2908 13.6753H19.8799L21.1077 12.0855L20.0168 10.6261H17.2908V11.5532H19.7441V12.6142H17.2908V13.6753ZM13.6086 14.7363V10.8913L12.1084 14.7363H11.0176L9.51733 10.7583V14.7363H7.20068L6.79297 13.543H4.47461L4.06519 14.7363H2.83765L4.88232 9.43204H6.38257L8.2915 14.471V9.43204H10.1995L11.563 13.0116L12.9265 9.43204H14.6995V14.7363H13.6086ZM4.88232 12.349H6.24683L5.56445 10.4931L4.88232 12.349Z" fill="#303030"/>
<path d="M461.553 21.7742L457.102 17.4453H457.795C458.714 17.4453 459.579 17.097 460.229 16.4653L463.755 13.0347C464.002 12.7949 464.432 12.7941 464.679 13.0347L468.193 16.4526C468.842 17.0847 469.707 17.4328 470.626 17.4328H471.049L466.586 21.7742C465.891 22.4501 464.98 22.788 464.069 22.788C463.159 22.788 462.248 22.4501 461.553 21.7742ZM453.398 13.8421C452.008 12.4899 452.008 10.2979 453.398 8.94615L456.106 6.31224C456.163 6.33306 456.223 6.34787 456.287 6.34787H457.795C458.429 6.34787 459.049 6.59786 459.497 7.0339L463.025 10.4646C463.353 10.7841 463.785 10.9443 464.217 10.9443C464.649 10.9443 465.081 10.7841 465.41 10.4643L468.924 7.04624C469.371 6.61036 469.992 6.36022 470.626 6.36022H471.852C471.92 6.36022 471.984 6.34571 472.044 6.32258L474.741 8.94615C476.131 10.2979 476.131 12.4899 474.741 13.8421L472.044 16.4654C471.984 16.4422 471.92 16.4278 471.852 16.4278H470.626C469.992 16.4278 469.371 16.1778 468.924 15.7416L465.41 12.3241C464.773 11.7039 463.662 11.7042 463.024 12.3237L459.497 15.7543C459.049 16.1902 458.429 16.4403 457.795 16.4403H456.287C456.223 16.4403 456.162 16.4551 456.106 16.4759L453.398 13.8421ZM463.755 9.75387L460.229 6.32286C459.579 5.69101 458.714 5.34276 457.795 5.34276H457.103L461.553 1.01396C462.943 -0.337987 465.196 -0.337987 466.586 1.01396L471.049 5.35525H470.626C469.707 5.35525 468.842 5.70336 468.193 6.33538L464.679 9.75357C464.551 9.87774 464.384 9.9396 464.217 9.93959C464.05 9.93959 463.882 9.87753 463.755 9.75387Z" fill="#303030"/>
<path d="M543.133 24H511.866C510.48 23.9981 509.356 22.9047 509.355 21.556L509.355 2.44235C509.357 1.09423 510.48 0.00184044 511.866 0L543.133 2.96845e-05C544.519 0.00184044 545.642 1.09426 545.644 2.44235L545.644 21.556C545.643 22.9047 544.519 23.9982 543.133 24ZM511.866 1.39832C511.275 1.39832 510.795 1.86499 510.795 2.44066L510.795 21.556C510.795 22.1317 511.275 22.5983 511.866 22.5983H543.133C543.725 22.5983 544.204 22.1317 544.204 21.556V2.44235C544.204 1.86668 543.725 1.39998 543.133 1.39998L511.866 1.39832Z" fill="#303030"/>
<rect x="539.606" y="3.62793" width="2.308" height="16.8315" fill="#303030"/>
<rect x="536.153" y="3.62793" width="2.308" height="14.5865" fill="#303030"/>
<rect x="518.85" y="3.62793" width="2.308" height="14.5865" fill="#303030"/>
<rect x="530.372" y="3.62793" width="2.308" height="14.5865" fill="#303030"/>
<rect x="524.61" y="3.62793" width="3.37963" height="14.5865" fill="#303030"/>
<rect x="516.578" y="3.62793" width="1.10805" height="14.5865" fill="#303030"/>
<rect x="522.339" y="3.62793" width="1.10805" height="14.5865" fill="#303030"/>
<rect x="533.846" y="3.62793" width="1.10805" height="14.5865" fill="#303030"/>
<rect x="513.068" y="3.62793" width="2.308" height="16.8315" fill="#303030"/>
<path d="M331.697 21.0892C326.547 21.0892 322.356 17.0139 322.356 12.0035C322.356 6.99412 326.547 2.91797 331.697 2.91797H342.963C348.113 2.91797 352.303 6.99412 352.303 12.0035C352.303 17.0139 348.113 21.0892 342.963 21.0892H331.697ZM322.894 12.006C322.894 16.7268 326.843 20.5675 331.697 20.5675C336.55 20.5675 340.499 16.7268 340.499 12.006C340.499 7.28538 336.55 3.44386 331.697 3.44386C326.843 3.44386 322.894 7.28538 322.894 12.006ZM333.763 6.81625C335.905 7.62343 337.424 9.63995 337.424 12.006C337.424 14.3724 335.903 16.3906 333.763 17.196V6.81625ZM325.971 12.006V12.0035C325.971 9.63734 327.49 7.61916 329.632 6.81376V17.196C327.493 16.3906 325.971 14.3742 325.971 12.006Z" fill="#303030"/>
<path d="M144.7 7.21683C144.161 7.02137 143.315 6.80859 142.269 6.80859C139.593 6.80859 137.701 8.12392 137.69 10.0063C137.668 11.3899 139.031 12.1697 140.06 12.636C141.119 13.1134 141.472 13.4107 141.467 13.8342C141.462 14.4868 140.621 14.7779 139.848 14.7779C138.773 14.7779 138.19 14.6354 137.291 14.2689L136.957 14.1152L136.576 16.2898C137.23 16.5494 138.403 16.7774 139.612 16.7988C142.463 16.7988 144.322 15.4947 144.343 13.484C144.365 12.3814 143.636 11.5446 142.081 10.8544C141.144 10.4095 140.556 10.1061 140.556 9.64999C140.556 9.24684 141.058 8.82333 142.104 8.82333C143.004 8.80704 143.637 8.99843 144.132 9.18881L144.388 9.29978L144.764 7.20564L144.7 7.21683ZM151.657 6.98879H149.564C148.91 6.98879 148.424 7.15881 148.135 7.79L144.112 16.6603H146.958L147.531 15.2076L151.003 15.2127C151.09 15.5517 151.335 16.6593 151.335 16.6593H153.848L151.657 6.98879ZM133.836 6.90938H136.546L134.85 16.585H132.141L133.836 6.90429V6.90938ZM126.946 12.2379L127.223 13.5848L129.878 6.98879H132.751L128.476 16.6441H125.616L123.271 8.46803C123.222 8.3255 123.163 8.22878 123.015 8.1453C122.225 7.74215 121.336 7.41332 120.355 7.18528L120.388 6.98268H124.76C125.349 7.00406 125.828 7.18528 125.992 7.80018L126.946 12.243L126.946 12.2379ZM148.304 13.2295L149.389 10.5204C149.372 10.5459 149.612 9.96355 149.748 9.59705L149.933 10.4288L150.561 13.2234H148.304V13.2295Z" fill="#303030"/>
</svg>
