<svg width="290" height="65" viewBox="0 0 290 65" fill="none" xmlns="http://www.w3.org/2000/svg">
<path d="M74.9029 15.4705C73.5256 16.5535 71.7883 17.1995 69.9001 17.1995C65.4262 17.1995 61.8001 13.5734 61.8001 9.09951C61.8001 4.62561 65.4262 0.999512 69.9001 0.999512C71.7883 0.999512 73.5256 1.64551 74.9029 2.72849C76.2803 1.64599 78.0161 0.999512 79.9 0.999512C84.3667 0.999512 88 4.63281 88 9.09951C88 13.5662 84.3667 17.1995 79.9 17.1995C78.0161 17.1995 76.2803 16.553 74.9029 15.4705ZM79.9 15.1997C83.2642 15.1997 86.0002 12.4628 86.0002 9.09951C86.0002 5.73621 83.2642 2.99931 79.9 2.99931C78.5644 2.99931 77.3277 3.43088 76.3218 4.16187C77.3741 5.5286 78.0001 7.24103 78.0001 9.09951C78.0001 10.958 77.3741 12.6704 76.3218 14.0371C77.3277 14.7681 78.5644 15.1997 79.9 15.1997Z" fill="black"/>
<path d="M261.852 5.74267C262.215 5.62108 262.605 5.55574 263.01 5.55574C264.776 5.55574 266.251 6.81059 266.589 8.47853L269.094 7.96768C268.519 5.13324 266.014 3 263.01 3C262.321 3 261.66 3.11219 261.041 3.3189L261.852 5.74267Z" fill="black"/>
<path d="M258.896 13.8589L260.59 11.9442C259.834 11.2745 259.357 10.297 259.357 9.20802C259.357 8.11903 259.833 7.14287 260.589 6.47395L258.895 4.55908C257.611 5.6964 256.801 7.35785 256.801 9.20802C256.801 11.0582 257.611 12.7214 258.896 13.8589Z" fill="black"/>
<path d="M266.589 9.94092C266.249 11.608 264.776 12.8605 263.01 12.8605C262.604 12.8605 262.214 12.7951 261.85 12.6729L261.039 15.0978C261.658 15.3043 262.321 15.4162 263.01 15.4162C266.011 15.4162 268.516 13.2865 269.093 10.4545L266.589 9.94092Z" fill="black"/>
<path d="M271.284 12.0252C271.202 11.8922 271.09 11.6797 271.023 11.5233C270.626 10.6025 270.607 9.64974 270.942 8.73502C271.311 7.73197 272.014 6.96398 272.923 6.57293C274.066 6.0812 275.329 6.17815 276.424 6.82795C277.12 7.2271 277.613 7.84334 277.988 8.71476C278.035 8.8263 278.077 8.94547 278.118 9.04664L271.284 12.0252ZM273.566 8.05103C272.754 8.39976 272.336 9.16092 272.422 10.0534L275.859 8.57404C275.268 7.87949 274.499 7.64928 273.566 8.05103ZM276.288 11.2699C276.287 11.2705 276.287 11.2712 276.286 11.2718L276.215 11.2238C276.01 11.5567 275.69 11.8263 275.286 12.0014C274.518 12.3355 273.806 12.2496 273.294 11.8011L273.247 11.8726C273.247 11.8726 273.247 11.8712 273.246 11.8712L272.374 13.1758C272.59 13.3263 272.823 13.4537 273.067 13.5555C274.03 13.9556 275.016 13.9371 275.987 13.5148C276.689 13.2105 277.24 12.7463 277.617 12.1581L276.288 11.2699Z" fill="black"/>
<path d="M280.507 4.65137V11.9045L281.635 12.3615L280.994 13.8567L279.75 13.3384C279.47 13.2174 279.28 13.0323 279.136 12.8233C278.998 12.6103 278.895 12.3179 278.895 11.9243V4.65137H280.507Z" fill="black"/>
<path d="M283.429 10.0568C283.429 9.43906 283.702 8.88522 284.134 8.50879L282.977 7.21875C282.192 7.91232 281.698 8.92575 281.697 10.055C281.695 11.1845 282.189 12.1991 282.973 12.8944L284.129 11.6031C283.699 11.225 283.428 10.673 283.429 10.0568Z" fill="black"/>
<path d="M285.484 12.1153C285.257 12.1147 285.037 12.0771 284.833 12.009L284.28 13.6518C284.658 13.7786 285.062 13.8477 285.483 13.8483C287.314 13.8501 288.844 12.5503 289.198 10.8224L287.5 10.4756C287.307 11.4125 286.478 12.1161 285.484 12.1153Z" fill="black"/>
<path d="M285.489 6.26905C285.069 6.26856 284.665 6.33681 284.288 6.46247L284.836 8.10674C285.041 8.03896 285.26 8.00151 285.488 8.00151C286.483 8.00249 287.313 8.71048 287.502 9.64968L289.2 9.30516C288.851 7.57495 287.323 6.27034 285.489 6.26905Z" fill="black"/>
<path d="M202.565 17.1166L187.799 17.1217V17.0869C187.799 17.0676 187.823 16.9431 187.852 16.81C187.881 16.6771 187.925 16.4655 187.951 16.3399C187.977 16.2143 188.021 16.0011 188.05 15.8657C188.119 15.5351 188.187 15.2044 188.255 14.8735C188.282 14.743 188.326 14.5296 188.354 14.3993C188.389 14.2325 188.424 14.0656 188.459 13.8987C188.489 13.7537 188.534 13.5325 188.56 13.4068C188.586 13.2812 188.627 13.0877 188.651 12.9767C188.675 12.8656 188.706 12.7154 188.72 12.643C188.733 12.5705 188.777 12.3571 188.817 12.1687C188.851 12.0109 188.884 11.8529 188.915 11.6946C188.929 11.6221 188.974 11.4087 189.014 11.2203C189.054 11.0321 189.099 10.8186 189.112 10.7462C189.126 10.6738 189.171 10.4603 189.211 10.272C189.252 10.0836 189.296 9.87408 189.308 9.80659C189.321 9.73895 189.357 9.56508 189.387 9.42021C189.418 9.27527 189.475 9.00256 189.515 8.81424C189.555 8.62585 189.623 8.2979 189.667 8.08534C189.71 7.87282 189.762 7.61995 189.782 7.52335C189.841 7.23929 189.901 6.95543 189.961 6.67159C189.99 6.53152 190.038 6.30231 190.067 6.16216C190.097 6.02214 190.142 5.8047 190.168 5.67921C190.193 5.5536 190.237 5.34419 190.265 5.21382C190.293 5.08334 190.342 4.85414 190.373 4.70441C190.404 4.55472 190.455 4.32552 190.488 4.19508C190.52 4.06467 190.566 3.90663 190.589 3.84384C190.613 3.78102 190.678 3.64493 190.734 3.54138L190.836 3.3531L190.928 3.23398C190.979 3.16852 191.07 3.06512 191.13 3.00412C191.19 2.94312 191.292 2.85138 191.356 2.80022C191.419 2.74901 191.512 2.67992 191.561 2.64674C191.61 2.61351 191.707 2.55533 191.776 2.51738C191.844 2.47954 191.941 2.42999 191.99 2.40724C192.039 2.38449 192.14 2.34286 192.213 2.31482C192.287 2.28694 192.428 2.24002 192.526 2.21063C192.624 2.1813 192.809 2.13704 192.936 2.11243C193.063 2.08765 193.264 2.05463 193.383 2.039L193.598 2.01053L208.373 2.00507L223.147 1.99951V2.03439C223.147 2.05356 223.124 2.17804 223.095 2.31108C223.058 2.47934 223.022 2.64781 222.987 2.81633C222.957 2.96126 222.913 3.17076 222.889 3.28177C222.856 3.4398 222.822 3.59784 222.79 3.75598C222.758 3.90578 222.711 4.13504 222.683 4.2653C222.656 4.39578 222.611 4.60919 222.585 4.73962C222.558 4.86998 222.513 5.08334 222.486 5.21379C222.453 5.36594 222.422 5.51813 222.39 5.67044C222.365 5.79117 222.32 6.00845 222.29 6.15338C222.26 6.29825 222.212 6.52747 222.183 6.66275C222.154 6.79793 222.11 7.00739 222.085 7.12813C222.06 7.24881 222.015 7.4662 221.985 7.61107C221.955 7.75598 221.907 7.98515 221.878 8.12044C221.849 8.25572 221.806 8.46118 221.782 8.5771C221.716 8.89917 221.649 9.22118 221.583 9.54308C221.558 9.65895 221.515 9.86456 221.487 9.99963C221.45 10.1724 221.414 10.345 221.378 10.5179C221.347 10.6677 221.302 10.8808 221.279 10.9921C221.255 11.1031 221.212 11.3125 221.182 11.4574C221.147 11.6272 221.111 11.7971 221.075 11.9668C221.047 12.102 221.003 12.3155 220.976 12.4411C220.951 12.5666 220.905 12.784 220.876 12.924C220.847 13.0639 220.799 13.2932 220.77 13.4332C220.74 13.5734 220.697 13.7828 220.673 13.8988C220.64 14.0568 220.607 14.2148 220.574 14.3729C220.539 14.5423 220.503 14.7114 220.466 14.8803L220.412 15.1242L220.348 15.2929C220.313 15.3858 220.26 15.5092 220.23 15.5671C220.201 15.6251 220.14 15.7274 220.096 15.7944C220.052 15.8615 219.991 15.9472 219.96 15.9852C219.929 16.0232 219.836 16.1212 219.753 16.2029L219.603 16.3515L219.458 16.4528C219.378 16.5085 219.292 16.5652 219.267 16.5788C219.241 16.5923 219.145 16.6405 219.053 16.6859C218.961 16.7314 218.831 16.789 218.764 16.8141C218.697 16.8395 218.564 16.8824 218.469 16.9096C218.374 16.937 218.272 16.9637 218.242 16.9692C218.213 16.9748 218.11 16.9955 218.015 17.0155C217.919 17.0353 217.726 17.0651 217.586 17.0815L217.331 17.1113L202.565 17.1166ZM197.311 13.3629H197.696L197.706 13.3351C197.712 13.3197 197.717 13.2839 197.717 13.2554C197.717 13.2266 197.73 13.1226 197.745 13.024C197.761 12.9254 197.797 12.6985 197.826 12.5198C197.855 12.3411 197.898 12.0725 197.922 11.9228C197.945 11.781 197.967 11.6389 197.987 11.4968C197.999 11.4123 198.014 11.3431 198.02 11.3431C198.025 11.3431 198.05 11.3805 198.075 11.4262L198.119 11.5092L198.218 11.6073L198.318 11.7053L198.439 11.7533L198.561 11.8013L198.707 11.8198L198.852 11.8383L199.037 11.8272L199.221 11.8161L199.421 11.7653L199.62 11.7145L199.728 11.6665C199.787 11.64 199.891 11.5823 199.96 11.5382L200.085 11.4582L200.202 11.3435C200.266 11.2807 200.356 11.1796 200.403 11.1192C200.449 11.0586 200.487 11.0047 200.487 10.9993C200.487 10.9939 200.51 10.9565 200.538 10.9161C200.566 10.8757 200.623 10.7636 200.665 10.667C200.706 10.5704 200.772 10.3966 200.81 10.2806L200.879 10.0699L200.915 9.88736C200.935 9.7869 200.96 9.621 200.971 9.51846L200.992 9.33223L200.98 9.17418L200.968 9.01614L200.931 8.858L200.894 8.69997L200.833 8.58165L200.773 8.46321L200.656 8.34178L200.54 8.22025L200.402 8.15019L200.264 8.08003L200.112 8.04428L199.96 8.00859L199.808 7.99767L199.656 7.98669L199.487 8.0058L199.318 8.02481L199.18 8.05948L199.042 8.09406L198.922 8.14874C198.856 8.17867 198.76 8.22966 198.708 8.26199C198.657 8.29427 198.604 8.33141 198.59 8.34456C198.577 8.35762 198.545 8.38197 198.519 8.3985L198.472 8.4287L198.505 8.27435C198.523 8.18953 198.538 8.11032 198.539 8.09816L198.539 8.07622H197.884L197.827 8.4319C197.795 8.62761 197.745 8.92982 197.716 9.10374C197.651 9.48732 197.585 9.87076 197.519 10.2541C197.49 10.4231 197.442 10.6919 197.412 10.8512C197.382 11.0107 197.338 11.2438 197.315 11.3695C197.291 11.495 197.247 11.7321 197.216 11.8963C197.18 12.0895 197.143 12.2828 197.107 12.4758C197.072 12.6575 197.036 12.839 197 13.0203C196.97 13.1652 196.942 13.3016 196.937 13.3233L196.927 13.3628L197.311 13.3629ZM198.965 11.3323L198.816 11.3411L198.719 11.3242L198.621 11.3074L198.522 11.2629L198.423 11.2184L198.354 11.1535L198.285 11.0886L198.245 11.0008C198.223 10.9524 198.195 10.8703 198.182 10.8183L198.159 10.7238L198.169 10.5724L198.178 10.4211L198.224 10.1839C198.258 10.0027 198.292 9.82126 198.325 9.63956C198.355 9.4705 198.401 9.22272 198.426 9.0891L198.473 8.84601L198.576 8.76221C198.632 8.71619 198.721 8.65437 198.774 8.62506L198.87 8.57158L198.995 8.53354L199.12 8.49544L199.281 8.48618L199.442 8.47685L199.573 8.50436L199.704 8.53177L199.796 8.57362L199.889 8.61548L199.966 8.69205L200.044 8.76863L200.085 8.84972C200.109 8.89429 200.141 8.98164 200.157 9.04366L200.187 9.15652L200.178 9.49031L200.169 9.82399L200.123 10.0212C200.098 10.1297 200.05 10.2957 200.016 10.3901L199.955 10.5617L199.881 10.7005C199.84 10.7769 199.777 10.8802 199.74 10.93C199.704 10.9798 199.646 11.0443 199.612 11.0733C199.57 11.1081 199.527 11.1418 199.484 11.1742L199.418 11.2222L199.266 11.2728L199.115 11.3235L198.965 11.3323ZM202.676 11.815L202.873 11.8174L203.07 11.7997C203.178 11.79 203.354 11.7697 203.463 11.7548C203.571 11.7399 203.758 11.7063 203.878 11.6804L204.096 11.6331L204.107 11.554C204.113 11.5105 204.138 11.381 204.162 11.2659L204.205 11.0572L204.195 11.0477L204.186 11.0383L204.119 11.0699C204.082 11.0874 203.968 11.129 203.865 11.1624L203.677 11.2231L203.481 11.2606L203.284 11.298L202.971 11.2987L202.658 11.2992L202.551 11.2655C202.492 11.2471 202.405 11.2133 202.358 11.1904L202.273 11.1488L202.202 11.0861L202.132 11.0234L202.077 10.9288L202.022 10.8341L201.987 10.7155L201.952 10.5968L201.952 10.3771L201.952 10.1575L201.983 9.96162L202.013 9.76576L202.282 9.75345L202.551 9.74109L203.545 9.74741L204.539 9.75366L204.569 9.62849C204.586 9.55966 204.611 9.4174 204.625 9.31236L204.651 9.12137L204.652 8.96075L204.652 8.80009L204.624 8.68005L204.596 8.56018L204.549 8.48076C204.523 8.43709 204.478 8.37378 204.448 8.34003C204.419 8.30635 204.366 8.25883 204.33 8.23448C204.295 8.21013 204.227 8.16919 204.177 8.14349L204.088 8.09679L203.932 8.05986L203.776 8.02298L203.583 8.0049L203.391 7.98676L203.212 7.99815L203.034 8.00966L202.819 8.05011L202.605 8.09064L202.471 8.14323C202.397 8.17213 202.284 8.22496 202.22 8.2606C202.157 8.29619 202.068 8.35414 202.024 8.38936C201.98 8.42458 201.903 8.49307 201.854 8.54156C201.804 8.59004 201.731 8.677 201.691 8.73503C201.652 8.79303 201.59 8.89568 201.556 8.96336C201.521 9.03102 201.475 9.12581 201.455 9.17413C201.434 9.2224 201.396 9.3212 201.371 9.39366C201.346 9.46613 201.306 9.60446 201.283 9.70105C201.256 9.81815 201.232 9.93594 201.212 10.0544L201.184 10.2322L201.184 10.4935L201.185 10.7548L201.212 10.869C201.227 10.9318 201.255 11.0267 201.275 11.0798C201.295 11.1328 201.332 11.212 201.357 11.2554C201.382 11.2988 201.436 11.3689 201.477 11.4109C201.517 11.453 201.591 11.5168 201.64 11.5528C201.689 11.5887 201.776 11.6392 201.834 11.6652L201.939 11.7121L202.086 11.7469C202.166 11.7659 202.288 11.7888 202.356 11.7974C202.424 11.8059 202.568 11.814 202.676 11.815ZM203.013 9.34094C202.518 9.34094 202.113 9.33752 202.113 9.33318C202.113 9.32884 202.135 9.26767 202.16 9.19708C202.186 9.12645 202.231 9.02139 202.261 8.96359L202.315 8.85838L202.433 8.74289L202.551 8.62724L202.667 8.57271C202.731 8.54262 202.816 8.50993 202.855 8.50003C202.894 8.49008 203.007 8.47691 203.105 8.47081L203.284 8.45946L203.421 8.47679L203.558 8.49414L203.658 8.53909L203.758 8.58394L203.812 8.64191C203.843 8.6738 203.878 8.72073 203.892 8.7462L203.917 8.79256L203.934 8.89546L203.95 8.99838L203.931 9.16963L203.912 9.34088L203.013 9.34094ZM208.359 11.8151L208.556 11.8174L208.779 11.7913C208.902 11.777 209.065 11.7534 209.142 11.7387C209.235 11.7202 209.328 11.6987 209.419 11.674C209.495 11.653 209.563 11.6306 209.571 11.6238C209.579 11.617 209.6 11.5373 209.618 11.4466C209.636 11.356 209.659 11.2343 209.669 11.1763C209.678 11.1183 209.684 11.0679 209.68 11.064C209.676 11.0603 209.663 11.0652 209.651 11.0749C209.638 11.0847 209.55 11.121 209.456 11.1555L209.284 11.2183L209.039 11.2649L208.794 11.3116L208.585 11.3047L208.377 11.2976L208.259 11.2573L208.14 11.2169L208.049 11.1384L207.957 11.0597L207.897 10.9511L207.836 10.8426L207.807 10.6973L207.778 10.5521L207.778 10.3636L207.779 10.1752L207.814 9.94681L207.849 9.71851L207.886 9.59546C207.906 9.52788 207.929 9.44894 207.937 9.41992C207.945 9.39093 207.978 9.30794 208.01 9.23552C208.042 9.1631 208.1 9.05115 208.138 8.98666L208.207 8.86957L208.292 8.78304L208.377 8.69649L208.467 8.64174L208.557 8.58694L208.672 8.55194C208.736 8.53273 208.848 8.50774 208.922 8.49651L209.056 8.47591L209.253 8.48564L209.449 8.49538L209.682 8.54108L209.914 8.58673L210.008 8.62131C210.06 8.64041 210.105 8.65598 210.108 8.65598C210.111 8.65598 210.123 8.59074 210.136 8.511C210.148 8.43137 210.17 8.30026 210.185 8.21977C210.199 8.13911 210.208 8.0697 210.204 8.06552C210.199 8.06125 210.13 8.05043 210.049 8.04134C209.967 8.0323 209.747 8.01619 209.559 8.00548L209.217 7.98621L208.976 8.00441L208.734 8.02261L208.556 8.05943L208.377 8.09636L208.262 8.14163C208.199 8.16652 208.106 8.21147 208.056 8.24138C208.008 8.27007 207.961 8.29993 207.914 8.33102C207.887 8.35034 207.802 8.42575 207.727 8.49858L207.59 8.631L207.514 8.74101C207.472 8.80154 207.399 8.92758 207.352 9.02133L207.267 9.19174L207.202 9.3761C207.166 9.47751 207.116 9.64346 207.09 9.74489L207.044 9.92935L207.028 10.0962L207.011 10.2631L207.011 10.4826L207.011 10.7022L207.028 10.8298L207.045 10.9576L207.098 11.0891L207.152 11.2204L207.214 11.3153L207.276 11.4103L207.374 11.5054L207.472 11.6003L207.576 11.6545L207.68 11.7085L207.817 11.7458C207.892 11.7662 208.001 11.7898 208.058 11.7982C208.116 11.8063 208.251 11.8141 208.359 11.8151ZM211.299 11.8088L211.54 11.802L211.692 11.7637L211.844 11.7254L211.942 11.6798C211.996 11.6546 212.085 11.6051 212.139 11.5696C212.193 11.5342 212.276 11.4666 212.325 11.4198C212.373 11.3727 212.444 11.2926 212.483 11.2416C212.523 11.1907 212.557 11.1513 212.56 11.154C212.563 11.1569 212.554 11.2382 212.54 11.3345C212.526 11.431 212.515 11.5593 212.514 11.6197L212.514 11.7294H213.17L213.18 11.4792L213.19 11.2289L213.237 10.9039C213.262 10.7252 213.304 10.4605 213.329 10.3156C213.354 10.1707 213.398 9.92572 213.426 9.77112C213.454 9.61661 213.499 9.37552 213.525 9.23546L213.573 8.98083L213.575 8.76082L213.577 8.54086L213.526 8.43924L213.475 8.33755L213.407 8.27286L213.338 8.20804L213.226 8.15201L213.113 8.09578L212.945 8.05905L212.777 8.02228L212.546 8.00511L212.315 7.98782L212.017 8.00597C211.853 8.01591 211.622 8.03557 211.505 8.04964L211.29 8.07516L211.144 8.07576L210.998 8.07634L210.977 8.17743C210.965 8.23288 210.932 8.36485 210.904 8.47066C210.876 8.57645 210.856 8.66545 210.859 8.6685C210.862 8.67177 210.94 8.65417 211.033 8.62981C211.125 8.60536 211.321 8.56522 211.469 8.5405L211.737 8.49559L211.978 8.4859L212.219 8.47601L212.375 8.50276L212.53 8.52962L212.634 8.57988L212.738 8.63025L212.796 8.71527L212.854 8.80037L212.853 8.93448L212.852 9.06865L212.821 9.21582L212.791 9.36299L212.148 9.3653L211.504 9.36754L211.294 9.42432C211.178 9.45552 211.05 9.49689 211.009 9.51631C210.968 9.53574 210.927 9.5517 210.918 9.5517C210.909 9.5517 210.84 9.5891 210.765 9.63512L210.629 9.71844L210.521 9.82394C210.462 9.88184 210.387 9.96881 210.354 10.0172C210.32 10.0655 210.266 10.1662 210.234 10.2414L210.174 10.3777L210.147 10.5311L210.12 10.6844V11.0063L210.146 11.1403L210.172 11.2742L210.22 11.3617C210.247 11.4097 210.296 11.4802 210.329 11.5182L210.389 11.5871L210.496 11.6509L210.603 11.7148L210.725 11.7488C210.792 11.7674 210.895 11.7901 210.953 11.7991L211.058 11.8154L211.299 11.8088ZM211.522 11.3175L211.379 11.325L211.284 11.3013C211.232 11.2882 211.153 11.2592 211.109 11.2367L211.028 11.1958L210.984 11.1442C210.959 11.1157 210.922 11.0601 210.901 11.0204L210.863 10.948L210.856 10.7791L210.848 10.6103L210.878 10.5079C210.895 10.4516 210.934 10.3538 210.965 10.2907L211.022 10.1759L211.13 10.0702L211.238 9.96442L211.353 9.90994L211.468 9.85556L211.611 9.82211L211.754 9.78873H212.648L212.676 9.80023L212.704 9.81168L212.68 9.94954C212.667 10.0253 212.636 10.1625 212.611 10.2542C212.586 10.346 212.542 10.4808 212.513 10.5541C212.484 10.6271 212.46 10.6917 212.46 10.6976C212.46 10.7036 212.431 10.7568 212.395 10.816L212.33 10.9238L212.222 11.0281C212.164 11.0853 212.109 11.1323 212.101 11.1323C212.093 11.1323 212.057 11.1521 212.021 11.1763L211.955 11.2201L211.81 11.2652L211.665 11.3103L211.522 11.3175ZM217.339 11.815L217.509 11.8171L217.67 11.7914C217.758 11.7774 217.871 11.7546 217.92 11.7409C217.969 11.7272 218.057 11.6918 218.116 11.6621L218.224 11.6081L218.316 11.5284L218.408 11.4485L218.505 11.3211C218.559 11.2512 218.607 11.182 218.613 11.1675L218.623 11.1412L218.614 11.229C218.608 11.2878 218.599 11.3464 218.589 11.4047C218.581 11.453 218.568 11.5458 218.562 11.611L218.55 11.7296H219.251V11.4924L219.304 11.0445C219.334 10.7981 219.377 10.4702 219.401 10.3157C219.425 10.1611 219.461 9.9399 219.482 9.82399C219.503 9.70807 219.541 9.4986 219.565 9.35854C219.59 9.21855 219.634 8.97351 219.663 8.81412C219.693 8.65469 219.74 8.40182 219.769 8.25203C219.797 8.10236 219.841 7.86919 219.866 7.73399C219.892 7.59875 219.937 7.36156 219.967 7.20706C219.999 7.04582 220.032 6.88484 220.066 6.72401C220.089 6.61296 220.109 6.51616 220.109 6.50893V6.49571H219.344L219.333 6.60548C219.326 6.66595 219.297 6.86536 219.268 7.04898C219.233 7.26572 219.197 7.4823 219.16 7.69882C219.139 7.82368 219.118 7.94859 219.098 8.07356L219.088 8.1321L219.058 8.11952C219.041 8.11252 218.951 8.08795 218.858 8.06493L218.688 8.02303L218.456 8.00526L218.224 7.9875L218.027 8.00548L217.83 8.02351L217.652 8.06793L217.473 8.1123L217.303 8.1937L217.133 8.2751L217.008 8.36607L216.883 8.45705L216.775 8.57094C216.716 8.63361 216.63 8.73711 216.584 8.80116L216.502 8.91736L216.405 9.11601C216.351 9.2253 216.286 9.3701 216.26 9.43764C216.234 9.50534 216.188 9.65514 216.158 9.77074L216.103 9.98088L216.076 10.2539L216.049 10.5267L216.07 10.7462L216.09 10.9658L216.114 11.0448C216.127 11.0884 216.155 11.1659 216.176 11.2169L216.213 11.31L216.282 11.4016L216.351 11.4931L216.429 11.5563L216.508 11.6195L216.615 11.6719C216.674 11.7006 216.773 11.7379 216.835 11.7544C216.897 11.7711 216.997 11.7913 217.058 11.799C217.119 11.8065 217.246 11.8139 217.339 11.815ZM217.644 11.3167L217.509 11.3236L217.418 11.3077C217.368 11.2988 217.287 11.275 217.239 11.2548L217.153 11.2182L217.079 11.1592L217.006 11.1001L216.952 10.9977L216.897 10.8952L216.872 10.7811L216.848 10.6669L216.85 10.4386L216.852 10.2103L216.88 10.0082L216.909 9.80634L216.954 9.66585C216.979 9.58856 216.999 9.51561 216.999 9.5038C216.999 9.49191 217.024 9.42882 217.053 9.36331C217.088 9.28764 217.124 9.21281 217.163 9.13892C217.194 9.08095 217.251 8.99063 217.291 8.93819C217.331 8.88574 217.401 8.80669 217.448 8.76248C217.494 8.71843 217.568 8.66054 217.612 8.63394L217.692 8.5856L217.833 8.53781L217.973 8.48987L218.268 8.48975H218.563L218.733 8.53606C218.826 8.56158 218.925 8.59102 218.953 8.60172L219.004 8.62103L218.994 8.6692C218.989 8.69568 218.967 8.81224 218.947 8.92812C218.926 9.04408 218.886 9.26543 218.857 9.41992C218.828 9.57445 218.783 9.80766 218.758 9.93803C218.733 10.0685 218.696 10.2345 218.676 10.3069C218.656 10.3813 218.636 10.4556 218.615 10.5299C218.601 10.5801 218.567 10.667 218.54 10.7231C218.513 10.779 218.466 10.8605 218.435 10.904C218.404 10.9475 218.352 11.0078 218.319 11.0378C218.286 11.068 218.215 11.1215 218.161 11.1568L218.063 11.221L217.921 11.2653L217.779 11.3096L217.644 11.3167ZM191.343 11.7296H191.777L191.808 11.5408C191.825 11.4369 191.859 11.2374 191.882 11.0974L191.981 10.5178C192.011 10.339 192.056 10.0742 192.082 9.92935C192.107 9.78448 192.147 9.55972 192.171 9.42993C192.194 9.3 192.218 9.18944 192.224 9.18398L192.234 9.17413H194.569L194.582 9.18687L194.595 9.1996L194.575 9.30096C194.564 9.35678 194.531 9.52888 194.502 9.68338C194.472 9.83795 194.423 10.0988 194.393 10.263C194.36 10.4359 194.327 10.6086 194.294 10.7811C194.27 10.9019 194.223 11.1547 194.188 11.3431C194.153 11.5315 194.125 11.6955 194.125 11.7076L194.125 11.7296H194.997L195.016 11.6198C195.027 11.5594 195.044 11.4508 195.055 11.3783C195.065 11.3059 195.089 11.1517 195.109 11.0359C195.129 10.9199 195.169 10.6906 195.198 10.5264C195.227 10.3622 195.275 10.0817 195.305 9.90298C195.335 9.72424 195.38 9.46344 195.404 9.32344C195.435 9.14752 195.468 8.97195 195.501 8.79652C195.53 8.64667 195.578 8.39391 195.608 8.23444C195.638 8.07512 195.683 7.83401 195.707 7.69878C195.732 7.5636 195.777 7.31859 195.808 7.15436C195.838 6.99011 195.877 6.79846 195.893 6.72841L195.924 6.60098H195.041L195.029 6.68452C195.022 6.73029 195.001 6.85895 194.981 6.96988C194.962 7.08109 194.926 7.27856 194.903 7.40898C194.879 7.53946 194.835 7.7883 194.806 7.9623C194.777 8.13264 194.749 8.3031 194.723 8.47375L194.693 8.66904L194.045 8.68195L193.397 8.69482L192.854 8.68221C192.556 8.6752 192.31 8.66809 192.308 8.66653C192.306 8.66476 192.316 8.59653 192.33 8.51476C192.349 8.40938 192.369 8.30421 192.391 8.19933C192.418 8.06473 192.445 7.93013 192.471 7.79527C192.496 7.6649 192.524 7.50291 192.534 7.43527C192.543 7.36766 192.563 7.25508 192.578 7.18491C192.593 7.11491 192.622 6.96742 192.642 6.85722C192.661 6.74693 192.682 6.64417 192.688 6.62883L192.699 6.60094H191.824L191.796 6.75468C191.78 6.83925 191.76 6.95978 191.75 7.02249C191.74 7.08531 191.708 7.28682 191.677 7.47037C191.647 7.65393 191.603 7.92661 191.578 8.07628L191.48 8.68221C191.446 8.89317 191.409 9.10402 191.371 9.31445C191.339 9.48726 191.307 9.65996 191.274 9.8326C191.251 9.95325 191.206 10.1825 191.176 10.3419C191.143 10.509 191.11 10.6758 191.075 10.8425C191.051 10.9583 191.024 11.0927 191.016 11.141C191.007 11.1894 190.98 11.3286 190.954 11.4506C190.929 11.5725 190.908 11.6851 190.908 11.7009V11.7294L191.343 11.7296ZM196.15 11.7296H196.534L196.545 11.7017C196.551 11.6864 196.556 11.6463 196.556 11.6127C196.556 11.579 196.58 11.4039 196.609 11.2233C196.677 10.8122 196.746 10.4014 196.817 9.9908C196.847 9.81783 196.879 9.64513 196.912 9.47266C196.941 9.32779 196.985 9.10252 197.01 8.97211C197.034 8.84169 197.083 8.59363 197.118 8.42076C197.153 8.24791 197.186 8.09956 197.192 8.09111L197.202 8.0757L196.813 8.08035L196.424 8.08511L196.392 8.31358C196.374 8.43912 196.335 8.6881 196.305 8.86671C196.275 9.04547 196.23 9.31821 196.205 9.47266C196.175 9.65744 196.142 9.84181 196.107 10.0259C196.079 10.1756 196.035 10.4048 196.01 10.5353C195.985 10.6658 195.94 10.8949 195.91 11.0446C195.88 11.1944 195.841 11.3919 195.822 11.4837C195.802 11.5756 195.782 11.6684 195.776 11.69L195.765 11.7296H196.15ZM205.14 11.7296H205.521L205.533 11.5709C205.539 11.4836 205.561 11.3078 205.581 11.1801C205.601 11.0524 205.642 10.7978 205.672 10.6143C205.71 10.3875 205.752 10.1611 205.797 9.93536C205.835 9.74553 205.879 9.55676 205.893 9.51605C205.908 9.47522 205.92 9.43106 205.92 9.41785C205.92 9.40457 205.949 9.33243 205.984 9.25757C206.019 9.18268 206.084 9.06801 206.129 9.00266L206.21 8.88396L206.319 8.78473L206.428 8.68553L206.563 8.62242L206.697 8.55933L206.903 8.56039L207.108 8.56152L207.209 8.59111C207.265 8.6075 207.315 8.62086 207.321 8.62086C207.327 8.62086 207.332 8.60214 207.332 8.57935C207.332 8.55659 207.352 8.44089 207.376 8.32225C207.401 8.20372 207.421 8.1017 207.421 8.09566C207.421 8.08951 207.363 8.06702 207.291 8.04572C207.22 8.02448 207.122 8.00221 207.073 7.99622L206.983 7.98535L206.867 8.00554C206.803 8.01662 206.708 8.04112 206.656 8.06006C206.604 8.07884 206.517 8.12167 206.464 8.155C206.411 8.18855 206.328 8.25369 206.281 8.29976C206.233 8.34596 206.152 8.43912 206.101 8.50671C206.062 8.55927 206.023 8.61194 205.984 8.66475L205.958 8.69986L205.974 8.62965C205.982 8.5909 206.006 8.46443 206.027 8.34863C206.047 8.23271 206.068 8.12396 206.074 8.1071L206.083 8.07634H205.402V8.11867C205.402 8.142 205.381 8.28221 205.357 8.43034C205.332 8.57864 205.292 8.82626 205.267 8.98088C205.242 9.13539 205.198 9.40419 205.168 9.57802C205.137 9.76265 205.104 9.94707 205.07 10.1312C205.003 10.4827 204.934 10.834 204.864 11.185C204.833 11.3348 204.797 11.5116 204.784 11.578C204.77 11.6443 204.758 11.7054 204.758 11.714V11.7294L205.14 11.7296ZM214.197 11.7296H214.587V11.4948L214.632 11.2038C214.657 11.0439 214.698 10.7903 214.723 10.6407C214.748 10.4909 214.779 10.3012 214.792 10.219C214.806 10.1369 214.84 9.95923 214.87 9.82394C214.899 9.68869 214.936 9.54243 214.952 9.49898C214.967 9.45558 214.98 9.40993 214.98 9.39767C214.98 9.38541 215.013 9.30649 215.054 9.22235L215.127 9.06923L215.225 8.9424L215.322 8.81557L215.428 8.737C215.487 8.69371 215.581 8.63644 215.637 8.60959L215.74 8.56071L215.963 8.56223L216.186 8.56377L216.274 8.59155L216.362 8.61932L216.377 8.61021L216.392 8.60123L216.393 8.5452C216.393 8.51433 216.412 8.39969 216.435 8.29028L216.477 8.09143L216.43 8.07339C216.385 8.0569 216.34 8.04172 216.294 8.02769L216.204 7.99997L216.044 8.00046L215.883 8.00082L215.752 8.04622L215.621 8.09148L215.522 8.14987L215.424 8.20825L215.296 8.33997L215.168 8.47166L215.099 8.57388C215.061 8.63002 215.028 8.67348 215.025 8.67038C215.022 8.66737 215.043 8.55028 215.071 8.41023C215.099 8.27013 215.122 8.13773 215.122 8.116L215.123 8.07651H214.462V8.08769C214.462 8.09383 214.446 8.20654 214.425 8.33803C214.405 8.46953 214.365 8.72331 214.336 8.90205C214.3 9.1158 214.265 9.32944 214.229 9.54308C214.197 9.72781 214.164 9.91217 214.13 10.0964C214.105 10.2267 214.061 10.4559 214.032 10.6057C214.003 10.7554 213.955 10.9965 213.926 11.1414L213.84 11.5673L213.807 11.7297L214.197 11.7296ZM196.906 7.44377L197.014 7.44414L197.1 7.4153L197.187 7.3864L197.263 7.31026L197.339 7.23425L197.379 7.13278L197.42 7.03137L197.421 6.88211L197.423 6.73291L197.387 6.67451L197.351 6.61618L197.289 6.57845L197.227 6.54051H196.958L196.866 6.58076L196.775 6.621L196.722 6.67693L196.669 6.73291L196.627 6.8295L196.585 6.92604L196.578 7.07654L196.57 7.22697L196.609 7.30179L196.647 7.3765L196.722 7.40994L196.797 7.44328L196.906 7.44377Z" fill="black"/>
<path d="M3.28261 18.8469C1.91298 18.8469 0.799698 17.7335 0.799698 16.3638V2.48303C0.799698 1.11414 1.91298 0 3.28261 0H25.0961C26.465 0 27.579 1.11414 27.579 2.48303V16.3638C27.579 17.7335 26.465 18.8469 25.0961 18.8469H3.28261ZM2.37807 2.80701V16.0398C2.37807 16.8201 3.01186 17.4536 3.79213 17.4536H24.5866C25.3659 17.4536 26.0004 16.8201 26.0004 16.0398V2.80701C26.0004 2.02771 25.3659 1.39319 24.5866 1.39319H3.79213C3.01186 1.39319 2.37807 2.02771 2.37807 2.80701ZM23.7306 12.15L22.3681 10.377L21.0045 12.15H16.6415V6.6969H21.1415L22.2321 8.33301L23.5956 6.6969H25.0951L23.0512 9.42297L25.0951 12.15H23.7306ZM17.735 11.0592H20.3241L21.5519 9.4248L20.4611 7.92444H17.735V8.87756H20.1884V9.96838H17.735V11.0592ZM14.0529 12.15V8.19714L12.5526 12.15H11.4618L9.96156 8.06042V12.15H7.64491L7.2372 10.9232H4.91884L4.50941 12.15H3.28188L5.32655 6.6969H6.8268L8.73573 11.8773V6.6969H10.6437L12.0072 10.377L13.3707 6.6969H15.1437V12.15H14.0529ZM5.32655 9.69568H6.69106L6.00868 7.78772L5.32655 9.69568Z" fill="black"/>
<path d="M145.145 4.4197C144.606 4.21874 143.76 4 142.713 4C140.037 4 138.146 5.35225 138.134 7.28747C138.112 8.70984 139.475 9.51156 140.505 9.99091C141.563 10.4818 141.917 10.7874 141.912 11.2228C141.906 11.8937 141.066 12.193 140.292 12.193C139.218 12.193 138.635 12.0465 137.735 11.6697L137.402 11.5117L137.021 13.7473C137.675 14.0142 138.847 14.2486 140.057 14.2706C142.908 14.2706 144.767 12.9299 144.788 10.8628C144.81 9.72926 144.08 8.86892 142.526 8.15931C141.588 7.70193 141.001 7.39004 141.001 6.92115C141.001 6.50668 141.502 6.07128 142.549 6.07128C143.448 6.05453 144.081 6.2513 144.576 6.44702L144.833 6.5611L145.208 4.40819L145.145 4.4197ZM152.102 4.18525H150.008C149.354 4.18525 148.868 4.36004 148.58 5.00895L144.556 14.1282H147.402L147.976 12.6347L151.447 12.6399C151.534 12.9885 151.779 14.1272 151.779 14.1272H154.292L152.102 4.18525ZM134.281 4.10362H136.99L135.295 14.0508H132.585L134.281 4.09838V4.10362ZM127.391 9.58168L127.668 10.9664L130.322 4.18525H133.195L128.921 14.1115H126.06L123.716 5.70601C123.667 5.55948 123.607 5.46005 123.459 5.37423C122.669 4.95976 121.781 4.6217 120.8 4.38725L120.832 4.17897H125.204C125.793 4.20095 126.273 4.38725 126.436 5.01942L127.391 9.58692L127.391 9.58168ZM148.748 10.6011L149.833 7.81601C149.817 7.84218 150.056 7.24351 150.192 6.86672L150.378 7.72182L151.006 10.5948H148.748V10.6011Z" fill="black"/>
<path d="M111.09 56.7104H109.897C109.745 56.7104 109.661 56.5708 109.769 56.4173L111.062 54.5812L109.744 50.7228C109.674 50.522 109.763 50.3587 109.982 50.3587H111.044C111.247 50.3587 111.358 50.4403 111.402 50.5889L112.157 53.0439L113.847 50.5946C113.958 50.4338 114.036 50.357 114.229 50.357H115.358C115.563 50.357 115.622 50.5448 115.497 50.7236L111.444 56.5365C111.378 56.6467 111.259 56.7128 111.132 56.7128C111.118 56.7128 111.104 56.712 111.09 56.7104ZM121.285 53.0357C121.401 51.4649 122.49 50.2394 124.104 50.206C124.799 50.1896 125.297 50.3971 125.492 50.8592C125.547 50.9897 125.607 50.9669 125.629 50.8371L125.671 50.5881C125.698 50.4297 125.749 50.3717 125.853 50.3717H127.002C127.156 50.3717 127.206 50.4713 127.174 50.6747L126.529 54.7224C126.485 54.9951 126.4 55.0661 126.223 55.0661H125.177C125.036 55.0661 124.976 54.9861 124.996 54.8351L125.034 54.546C125.05 54.4252 124.941 54.4759 124.833 54.5738L124.838 54.5762C124.418 54.96 124.046 55.2049 123.213 55.2049C122.065 55.2049 121.195 54.2505 121.285 53.0357ZM122.878 52.7173C122.778 53.3966 123.262 53.9509 123.957 53.9509C124.652 53.9509 125.301 53.3966 125.402 52.7173C125.502 52.038 125.018 51.4837 124.323 51.4837C123.629 51.4837 122.979 52.038 122.878 52.7173ZM103.105 53.0357C103.221 51.4649 104.31 50.2394 105.924 50.206C106.619 50.1896 107.117 50.3971 107.312 50.8592C107.367 50.9897 107.427 50.9669 107.449 50.8371L107.491 50.5881C107.518 50.4297 107.569 50.3717 107.673 50.3717H108.824C108.978 50.3717 109.028 50.4713 108.995 50.6747L108.35 54.7224C108.307 54.9951 108.221 55.0661 108.045 55.0661H106.998C106.858 55.0661 106.798 54.9861 106.818 54.8351L106.856 54.546C106.872 54.4252 106.762 54.4759 106.655 54.5738L106.658 54.5762C106.238 54.96 105.866 55.2049 105.033 55.2049C103.885 55.2049 103.015 54.2505 103.105 53.0357ZM104.699 52.7173C104.599 53.3966 105.083 53.9509 105.778 53.9509C106.473 53.9509 107.122 53.3966 107.223 52.7173C107.323 52.038 106.839 51.4837 106.144 51.4837C105.449 51.4837 104.8 52.038 104.699 52.7173ZM128.784 55.0727H127.576C127.533 55.0746 127.492 55.0574 127.464 55.0258C127.435 54.9942 127.422 54.9516 127.428 54.9094L128.49 48.1854C128.51 48.0909 128.594 48.0232 128.69 48.0221H129.899C129.941 48.0202 129.982 48.0373 130.011 48.0689C130.04 48.1005 130.053 48.1432 130.047 48.1854L128.985 54.9094C128.965 55.0045 128.882 55.0729 128.784 55.0743L128.784 55.0727ZM115.758 55.0514C115.57 55.0514 115.504 54.9314 115.546 54.6628L116.52 48.4213C116.568 48.1143 116.683 48 116.893 48H119.713V48.0017C120.78 48.0017 121.765 48.5805 121.63 50.0231C121.467 51.7376 120.548 52.6863 119.099 52.6904H117.834C117.652 52.6904 117.563 52.8389 117.516 53.1435L117.271 54.7003C117.234 54.9355 117.114 55.0514 116.936 55.0514H115.758ZM119.007 49.3626L118.104 49.3667L117.794 51.3424H118.754C119.354 51.3196 119.752 50.904 119.792 50.1546C119.817 49.6934 119.506 49.3626 119.012 49.3626C119.01 49.3626 119.009 49.3626 119.007 49.3626ZM97.5784 55.0514C97.3906 55.0514 97.3253 54.9314 97.3669 54.6628L98.3393 48.4229C98.3875 48.116 98.5025 48.0017 98.7124 48.0017H101.532H101.535C102.602 48.0017 103.586 48.5805 103.452 50.0231C103.288 51.7376 102.37 52.6863 100.921 52.6904H99.6545C99.4724 52.6904 99.3842 52.8389 99.3369 53.1435L99.092 54.7003C99.0553 54.9355 98.9344 55.0514 98.7565 55.0514H97.5784ZM100.829 49.3626L99.9256 49.3667L99.6162 51.3424H100.575C101.176 51.3196 101.574 50.904 101.614 50.1546C101.638 49.6934 101.328 49.3626 100.834 49.3626C100.832 49.3626 100.83 49.3626 100.829 49.3626Z" fill="black"/>
<path d="M172.552 62.3853L168.102 57.9349H168.794C169.713 57.9349 170.578 57.5768 171.228 56.9274L174.755 53.4005C175.001 53.154 175.431 53.1532 175.678 53.4005L179.192 56.9144C179.842 57.5641 180.706 57.922 181.626 57.922H182.049L177.585 62.3853C176.891 63.0802 175.98 63.4276 175.069 63.4276C174.158 63.4276 173.247 63.0802 172.552 62.3853ZM164.397 54.2306C163.007 52.8405 163.007 50.587 164.397 49.1972L167.105 46.4894C167.162 46.5108 167.222 46.526 167.286 46.526H168.794C169.428 46.526 170.049 46.783 170.497 47.2313L174.024 50.7583C174.353 51.0868 174.784 51.2515 175.216 51.2515C175.648 51.2515 176.08 51.0868 176.409 50.758L179.923 47.244C180.371 46.7959 180.991 46.5387 181.626 46.5387H182.852C182.919 46.5387 182.984 46.5238 183.043 46.5L185.74 49.1972C187.13 50.587 187.13 52.8405 185.74 54.2306L183.043 56.9276C182.984 56.9036 182.919 56.8889 182.852 56.8889H181.626C180.991 56.8889 180.371 56.6318 179.923 56.1834L176.409 52.67C175.772 52.0324 174.661 52.0327 174.024 52.6696L170.497 56.1964C170.049 56.6445 169.428 56.9017 168.794 56.9017H167.286C167.222 56.9017 167.162 56.9169 167.105 56.9383L164.397 54.2306ZM174.755 50.0276L171.228 46.5003C170.578 45.8507 169.713 45.4927 168.794 45.4927H168.102L172.552 41.0424C173.942 39.6525 176.196 39.6525 177.585 41.0424L182.049 45.5056H181.626C180.706 45.5056 179.842 45.8634 179.192 46.5132L175.678 50.0273C175.551 50.155 175.384 50.2186 175.217 50.2186C175.049 50.2186 174.882 50.1548 174.755 50.0276Z" fill="black"/>
<path d="M254.132 64.6736H222.866C221.479 64.6717 220.356 63.5475 220.355 62.1609L220.355 42.5109C220.357 41.1249 221.48 40.0019 222.866 40L254.132 40C255.518 40.0019 256.641 41.125 256.643 42.5109L256.643 62.1609C256.642 63.5475 255.519 64.6717 254.132 64.6736ZM222.866 41.4376C222.274 41.4376 221.794 41.9173 221.794 42.5092L221.794 62.1609C221.794 62.7528 222.274 63.2326 222.866 63.2326H254.132C254.724 63.2326 255.204 62.7528 255.204 62.1609V42.5109C255.204 41.9191 254.724 41.4393 254.132 41.4393L222.866 41.4376Z" fill="black"/>
<rect x="250.605" y="43.73" width="2.308" height="17.3039" fill="black"/>
<rect x="247.153" y="43.73" width="2.308" height="14.9959" fill="black"/>
<rect x="229.849" y="43.73" width="2.308" height="14.9959" fill="black"/>
<rect x="241.371" y="43.73" width="2.308" height="14.9959" fill="black"/>
<rect x="235.609" y="43.73" width="3.37963" height="14.9959" fill="black"/>
<rect x="227.577" y="43.73" width="1.10805" height="14.9959" fill="black"/>
<rect x="233.338" y="43.73" width="1.10805" height="14.9959" fill="black"/>
<rect x="244.845" y="43.73" width="1.10805" height="14.9959" fill="black"/>
<rect x="224.067" y="43.73" width="2.308" height="17.3039" fill="black"/>
<path d="M42.6957 61.6808C37.5458 61.6808 33.3554 57.4911 33.3554 52.3401C33.3554 47.1901 37.5458 42.9995 42.6957 42.9995H53.9616C59.1117 42.9995 63.3021 47.1901 63.3021 52.3401C63.3021 57.4911 59.1117 61.6808 53.9616 61.6808H42.6957ZM33.8932 52.3427C33.8932 57.1959 37.8419 61.1444 42.6957 61.1444C47.549 61.1444 51.4975 57.1959 51.4975 52.3427C51.4975 47.4895 47.549 43.5402 42.6957 43.5402C37.8419 43.5402 33.8932 47.4895 33.8932 52.3427ZM44.7619 47.0072C46.9039 47.837 48.4232 49.9102 48.4232 52.3427C48.4232 54.7754 46.902 56.8502 44.7619 57.6782V47.0072ZM36.9704 52.3427V52.3401C36.9704 49.9075 38.4894 47.8326 40.6305 47.0046V57.6782C38.4921 56.8502 36.9704 54.7772 36.9704 52.3427Z" fill="black"/>
</svg>
