<svg width="23" height="19" viewBox="0 0 23 19" fill="none" xmlns="http://www.w3.org/2000/svg">
<path d="M2.11393 17.3651C1.75465 17.2223 1.43391 16.9972 1.17755 16.7079C0.921179 16.4185 0.736346 16.073 0.637931 15.6991C0.204839 13.754 0.0114013 11.7632 0.0619312 9.7711C0.0116951 7.78138 0.204793 5.79297 0.636931 3.8501C0.733419 3.47679 0.916136 3.13132 1.1704 2.84145C1.42466 2.55158 1.74338 2.32541 2.10093 2.1811C5.48793 0.887098 10.8349 0.850098 11.4339 0.850098H11.4719C12.0999 0.850098 17.4469 0.887098 20.8219 2.1761C21.181 2.31904 21.5015 2.54425 21.7577 2.8336C22.0138 3.12295 22.1985 3.46837 22.2969 3.8421C22.73 5.78721 22.9234 7.778 22.8729 9.7701C22.9234 11.7612 22.7303 13.7509 22.2979 15.6951C22.2008 16.0676 22.0178 16.4123 21.7636 16.7014C21.5094 16.9905 21.191 17.2161 20.8339 17.3601C17.4469 18.6541 12.0999 18.6911 11.5009 18.6911C10.8359 18.6921 5.48793 18.6501 2.11393 17.3651ZM2.69493 3.6991C2.57751 3.74801 2.47305 3.8235 2.38976 3.91963C2.30647 4.01576 2.24662 4.12991 2.21493 4.2531C1.81696 6.06435 1.641 7.91731 1.69093 9.7711C1.64097 11.6259 1.81727 13.4799 2.21593 15.2921C2.24841 15.417 2.30975 15.5326 2.39503 15.6295C2.48031 15.7264 2.58714 15.802 2.70693 15.8501C5.84993 17.0501 11.2069 17.0651 11.4339 17.0651C11.7269 17.0651 17.0849 17.0511 20.2399 15.8461C20.3573 15.7972 20.4618 15.7217 20.5451 15.6256C20.6284 15.5294 20.6882 15.4153 20.7199 15.2921C21.118 13.4805 21.2939 11.6272 21.2439 9.7731C21.294 7.9176 21.1177 6.06292 20.7189 4.2501C20.686 4.12574 20.6244 4.0108 20.5392 3.91445C20.4539 3.81809 20.3473 3.74298 20.2279 3.6951C17.0849 2.4951 11.7279 2.4801 11.5009 2.4801H11.4339C11.2079 2.4791 5.84993 2.4931 2.69493 3.6991ZM9.45393 13.7501C9.32404 13.6805 9.21545 13.5769 9.13973 13.4505C9.06401 13.3241 9.02399 13.1795 9.02393 13.0321V6.5121C9.02375 6.36463 9.06362 6.21988 9.13931 6.09331C9.21499 5.96674 9.32364 5.86312 9.45364 5.79349C9.58364 5.72387 9.73011 5.69088 9.87741 5.69803C10.0247 5.70518 10.1673 5.75221 10.2899 5.8341L15.1779 9.0931C15.2895 9.16741 15.381 9.26814 15.4443 9.38634C15.5076 9.50453 15.5407 9.63653 15.5407 9.7706C15.5407 9.90467 15.5076 10.0367 15.4443 10.1549C15.381 10.2731 15.2895 10.3738 15.1779 10.4481L10.2899 13.7071C10.1672 13.7887 10.0247 13.8356 9.87746 13.8426C9.73024 13.8497 9.58387 13.8166 9.45393 13.7471V13.7501ZM10.6539 11.5101L13.2539 9.7731L10.6539 8.0371V11.5101Z" fill="#005CFF"/>
</svg>
