<svg width="194" height="26" viewBox="0 0 194 26" fill="none" xmlns="http://www.w3.org/2000/svg">
<g clip-path="url(#clip0_9823_72)">
<path d="M5.59087 22.5032C4.11694 22.5486 2.68482 22.0094 1.60687 21.0032C1.0723 20.4678 0.65366 19.8281 0.377018 19.124C0.100377 18.4198 -0.0283432 17.6662 -0.00112679 16.9102V9.05815C-0.0460495 8.31712 0.0667904 7.575 0.329937 6.88081C0.593084 6.18662 1.00055 5.55618 1.5254 5.03113C2.05026 4.50609 2.68055 4.0984 3.37465 3.835C4.06874 3.57161 4.81083 3.4585 5.55187 3.50315H13.4449C14.1867 3.47754 14.926 3.60366 15.6175 3.8738C16.3089 4.14393 16.9379 4.55239 17.4659 5.07415C17.9744 5.60225 18.3721 6.22684 18.6354 6.91109C18.8987 7.59533 19.0223 8.32537 18.9989 9.05815V16.9492C19.0276 17.6962 18.9031 18.4413 18.6331 19.1385C18.3631 19.8357 17.9533 20.4703 17.4289 21.0032C16.3375 22.0124 14.8926 22.5513 13.4069 22.5032H5.59087ZM2.79887 6.26215C2.44703 6.63531 2.1741 7.07563 1.99643 7.55674C1.81876 8.03786 1.74 8.54988 1.76487 9.06215V16.9152C1.73785 17.4319 1.81552 17.9487 1.9932 18.4347C2.17088 18.9207 2.44492 19.3657 2.79887 19.7432C3.5664 20.4283 4.57094 20.7871 5.59887 20.7432H13.4149C14.4428 20.787 15.4473 20.4283 16.2149 19.7432C16.5833 19.3795 16.8723 18.9433 17.0635 18.4622C17.2548 17.9811 17.3441 17.4655 17.3259 16.9482V9.05815C17.3452 8.03917 16.9701 7.05213 16.2789 6.30315C15.9058 5.95116 15.4655 5.67814 14.9844 5.50046C14.5032 5.32279 13.9912 5.24411 13.4789 5.26915H5.59087C4.5656 5.21849 3.56191 5.57547 2.79887 6.26215ZM4.59887 12.9622C4.59887 11.993 4.88625 11.0457 5.42467 10.2399C5.96309 9.43406 6.72837 8.80601 7.62372 8.43514C8.51908 8.06427 9.50431 7.96724 10.4548 8.15631C11.4053 8.34537 12.2784 8.81205 12.9637 9.49733C13.649 10.1826 14.1157 11.0557 14.3047 12.0062C14.4938 12.9567 14.3968 13.9419 14.0259 14.8373C13.655 15.7327 13.027 16.4979 12.2212 17.0364C11.4154 17.5748 10.468 17.8622 9.49887 17.8622C8.20072 17.8593 6.95653 17.3425 6.03832 16.4248C5.1201 15.5072 4.60257 14.2633 4.59887 12.9652V12.9622ZM6.36187 12.9622C6.36148 13.5836 6.54546 14.1913 6.89053 14.7082C7.23561 15.225 7.72626 15.6279 8.3004 15.8659C8.87454 16.1038 9.50636 16.166 10.1159 16.0447C10.7254 15.9235 11.2853 15.6241 11.7246 15.1845C12.1639 14.7449 12.463 14.1848 12.5839 13.5752C12.7048 12.9656 12.6421 12.3338 12.4038 11.7598C12.1655 11.1858 11.7623 10.6954 11.2452 10.3507C10.7281 10.006 10.1204 9.82236 9.49887 9.82315C8.66671 9.82658 7.86962 10.1587 7.28128 10.7473C6.69294 11.3358 6.36103 12.133 6.35787 12.9652L6.36187 12.9622ZM13.4869 7.94215C13.4879 7.72268 13.5538 7.50841 13.6765 7.32639C13.7991 7.14436 13.9729 7.00274 14.1759 6.91939C14.379 6.83604 14.6021 6.81469 14.8173 6.85804C15.0325 6.90139 15.23 7.0075 15.3849 7.16297C15.5398 7.31844 15.6452 7.51632 15.6878 7.73163C15.7303 7.94694 15.7082 8.17003 15.6241 8.37277C15.54 8.5755 15.3978 8.74879 15.2153 8.87077C15.0329 8.99275 14.8184 9.05795 14.5989 9.05815C14.4524 9.05868 14.3073 9.03027 14.1719 8.97456C14.0364 8.91885 13.9133 8.83694 13.8096 8.73352C13.7059 8.6301 13.6237 8.50722 13.5676 8.37193C13.5115 8.23664 13.4827 8.0916 13.4829 7.94515L13.4869 7.94215Z" fill="#005CFF"/>
<path d="M69.3889 9.05966H65.8519V6.73966C65.8327 6.60184 65.8442 6.46148 65.8856 6.32861C65.9269 6.19575 65.9971 6.07366 66.0911 5.97106C66.1851 5.86846 66.3006 5.78788 66.4294 5.73509C66.5581 5.6823 66.6969 5.65859 66.8359 5.66566H69.3359V1.83566L65.8939 1.82666C62.0779 1.82666 61.2099 4.68266 61.2099 6.51066V9.06366H59.0029V13.0067H61.2099V24.1737H65.8519V13.0067H68.9839L69.3889 9.05966Z" fill="#005CFF"/>
<path d="M113.114 20.3651C112.755 20.2223 112.434 19.9972 112.178 19.7079C111.921 19.4185 111.736 19.073 111.638 18.6991C111.205 16.754 111.011 14.7632 111.062 12.7711C111.012 10.7814 111.205 8.79297 111.637 6.8501C111.733 6.47679 111.916 6.13132 112.17 5.84145C112.425 5.55158 112.743 5.32541 113.101 5.1811C116.488 3.8871 121.835 3.8501 122.434 3.8501H122.472C123.1 3.8501 128.447 3.8871 131.822 5.1761C132.181 5.31904 132.501 5.54425 132.758 5.8336C133.014 6.12295 133.199 6.46837 133.297 6.8421C133.73 8.78721 133.923 10.778 133.873 12.7701C133.923 14.7612 133.73 16.7509 133.298 18.6951C133.201 19.0676 133.018 19.4123 132.764 19.7014C132.509 19.9905 132.191 20.2161 131.834 20.3601C128.447 21.6541 123.1 21.6911 122.501 21.6911C121.836 21.6921 116.488 21.6501 113.114 20.3651ZM113.695 6.6991C113.578 6.74801 113.473 6.8235 113.39 6.91963C113.306 7.01576 113.247 7.12991 113.215 7.2531C112.817 9.06435 112.641 10.9173 112.691 12.7711C112.641 14.6259 112.817 16.4799 113.216 18.2921C113.248 18.417 113.31 18.5326 113.395 18.6295C113.48 18.7264 113.587 18.802 113.707 18.8501C116.85 20.0501 122.207 20.0651 122.434 20.0651C122.727 20.0651 128.085 20.0511 131.24 18.8461C131.357 18.7972 131.462 18.7217 131.545 18.6256C131.628 18.5294 131.688 18.4153 131.72 18.2921C132.118 16.4805 132.294 14.6272 132.244 12.7731C132.294 10.9176 132.118 9.06292 131.719 7.2501C131.686 7.12574 131.624 7.0108 131.539 6.91445C131.454 6.81809 131.347 6.74298 131.228 6.6951C128.085 5.4951 122.728 5.4801 122.501 5.4801H122.434C122.208 5.4791 116.85 5.4931 113.695 6.6991ZM120.454 16.7501C120.324 16.6805 120.215 16.5769 120.14 16.4505C120.064 16.3241 120.024 16.1795 120.024 16.0321V9.5121C120.024 9.36463 120.064 9.21988 120.139 9.09331C120.215 8.96674 120.324 8.86312 120.454 8.79349C120.584 8.72387 120.73 8.69088 120.877 8.69803C121.025 8.70518 121.167 8.75221 121.29 8.8341L126.178 12.0931C126.29 12.1674 126.381 12.2681 126.444 12.3863C126.508 12.5045 126.541 12.6365 126.541 12.7706C126.541 12.9047 126.508 13.0367 126.444 13.1549C126.381 13.2731 126.29 13.3738 126.178 13.4481L121.29 16.7071C121.167 16.7887 121.025 16.8356 120.877 16.8426C120.73 16.8497 120.584 16.8166 120.454 16.7471V16.7501ZM121.654 14.5101L124.254 12.7731L121.654 11.0371V14.5101Z" fill="#005CFF"/>
<path d="M191.32 6.99049C191.179 6.9171 191.041 6.83666 190.907 6.74949C190.519 6.49311 190.162 6.19095 189.845 5.84949C189.223 5.15433 188.808 4.2992 188.645 3.38049C188.587 3.09104 188.57 2.7946 188.597 2.50049H184.999V16.4455C184.999 16.6325 184.999 16.8175 184.991 17.0005C184.991 17.0235 184.991 17.0445 184.991 17.0685C184.992 17.0788 184.992 17.0892 184.991 17.0995V17.1075C184.953 17.608 184.793 18.0914 184.524 18.5153C184.256 18.9393 183.887 19.2906 183.45 19.5385C182.996 19.7972 182.481 19.933 181.958 19.9325C181.146 19.9325 180.367 19.6098 179.793 19.0355C179.218 18.4612 178.896 17.6822 178.896 16.87C178.896 16.0578 179.218 15.2788 179.793 14.7045C180.367 14.1301 181.146 13.8075 181.958 13.8075C182.276 13.8071 182.593 13.857 182.895 13.9555V10.2835C181.977 10.1649 181.045 10.2379 180.156 10.4978C179.268 10.7577 178.443 11.1989 177.733 11.7935C177.112 12.3323 176.59 12.9753 176.189 13.6935C175.683 14.6243 175.409 15.6632 175.389 16.7225C175.381 17.5367 175.512 18.3464 175.776 19.1165V19.1255C176.014 19.7651 176.344 20.3667 176.755 20.9115C177.201 21.4769 177.727 21.9735 178.317 22.3855V22.3765L178.326 22.3855C179.42 23.1064 180.7 23.4935 182.009 23.4995C182.953 23.4995 183.885 23.2948 184.741 22.8995C185.587 22.5006 186.342 21.933 186.96 21.2315C187.474 20.6353 187.883 19.9559 188.169 19.2225C188.433 18.4832 188.58 17.7071 188.604 16.9225V9.52249C188.648 9.54849 189.23 9.93449 189.23 9.93449C189.902 10.3297 190.625 10.629 191.379 10.8235C192.104 10.9895 192.842 11.09 193.585 11.1235V7.54349C192.796 7.55332 192.016 7.36307 191.32 6.99049Z" fill="#005CFF"/>
</g>
<defs>
<clipPath id="clip0_9823_72">
<rect width="194" height="26" fill="white"/>
</clipPath>
</defs>
</svg>
